<?xml version="1.0" encoding="utf-8"?>
<!-- Generator: Adobe Illustrator 19.0.0, SVG Export Plug-In . SVG Version: 6.00 Build 0)  -->
<svg version="1.1" id="Layer_1" xmlns="http://www.w3.org/2000/svg" xmlns:xlink="http://www.w3.org/1999/xlink" x="0px" y="0px"
	 viewBox="0 0 13 23" style="enable-background:new 0 0 13 23;" xml:space="preserve">
<style type="text/css">
	.st0{fill-rule:evenodd;clip-rule:evenodd;fill:#87959A;}
</style>
<path id="XMLID_4_" class="st0" d="M12.3,4.3L4,13c-0.9,1-2.4,1-3.3,0c-0.9-1-0.9-2.5,0-3.5L9,0.7c0.9-1,2.4-1,3.3,0
	C13.2,1.7,13.2,3.3,12.3,4.3z"/>
<path id="XMLID_2_" class="st0" d="M12.3,18.7L4,10c-0.9-1-2.4-1-3.3,0c-0.9,1-0.9,2.5,0,3.5L9,22.3c0.9,1,2.4,1,3.3,0
	C13.2,21.3,13.2,19.7,12.3,18.7z"/>
</svg>
