<?xml version="1.0" encoding="utf-8"?>
<!-- Generator: Adobe Illustrator 19.0.0, SVG Export Plug-In . SVG Version: 6.00 Build 0)  -->
<svg version="1.1" id="Layer_1" xmlns="http://www.w3.org/2000/svg" xmlns:xlink="http://www.w3.org/1999/xlink" x="0px" y="0px"
	 viewBox="-2 -2 13 23" style="enable-background:new -2 -2 13 23;" xml:space="preserve">
<style type="text/css">
	.st0{fill:#87959A;}
</style>
<path id="XMLID_4_" class="st0" d="M-1.4,16.8L7.1,8c0.9-1,2.4-1,3.3,0c0.9,1,0.9,2.5,0,3.5L2,20.3c-0.9,1-2.4,1-3.3,0
	S-2.3,17.6-1.4,16.8z"/>
<path id="XMLID_2_" class="st0" d="M-1.2,2.3L7.1,11c0.9,1,2.4,1,3.3,0c0.9-1,0.9-2.5,0-3.5L2.1-1.3c-0.9-1-2.4-1-3.3,0
	C-2-0.4-2,1.2-1.2,2.3z"/>
</svg>
