<?xml version="1.0" encoding="utf-8"?>
<!-- Generator: Adobe Illustrator 19.0.0, SVG Export Plug-In . SVG Version: 6.00 Build 0)  -->
<svg version="1.1" id="Layer_1" xmlns="http://www.w3.org/2000/svg" xmlns:xlink="http://www.w3.org/1999/xlink" x="0px" y="0px"
	 viewBox="0 0 17 22" style="enable-background:new 0 0 17 22;" xml:space="preserve">
<style type="text/css">
	.st0{fill:#D44055;}
</style>
<path id="XMLID_2_" class="st0" d="M12.8,11.4h-0.9c1.7-1.1,2.9-3,2.9-5.2C14.8,2.8,12,0,8.5,0S2.2,2.8,2.2,6.2
	c0,2.2,1.2,4.1,2.9,5.2H4.2c-2.3,0-4.2,1.9-4.2,4.1v5.8C0,21.7,0.3,22,0.7,22h15.6c0.4,0,0.7-0.3,0.7-0.7v-5.8
	C17,13.3,15.1,11.4,12.8,11.4z M3.6,6.2c0-2.7,2.2-4.8,4.9-4.8c2.7,0,4.9,2.2,4.9,4.8S11.2,11,8.5,11C5.8,11,3.6,8.9,3.6,6.2z
	 M10.5,12.1l-2,2l-2-2c0.6,0.2,1.3,0.3,2,0.3S9.9,12.3,10.5,12.1z M15.6,20.6h-1.9v-3.3c0-0.4-0.3-0.7-0.7-0.7
	c-0.4,0-0.7,0.3-0.7,0.7v3.3H4.7v-3.3c0-0.4-0.3-0.7-0.7-0.7c-0.4,0-0.7,0.3-0.7,0.7v3.3H1.4v-5.1c0-1.5,1.3-2.8,2.8-2.8h1L8,15.5
	c0.1,0.1,0.3,0.2,0.5,0.2s0.4-0.1,0.5-0.2l2.8-2.7h1c1.5,0,2.8,1.2,2.8,2.8V20.6z"/>
</svg>
