<?xml version="1.0" encoding="utf-8"?>
<!-- Generator: Adobe Illustrator 19.0.0, SVG Export Plug-In . SVG Version: 6.00 Build 0)  -->
<svg version="1.1" id="Layer_1" xmlns="http://www.w3.org/2000/svg" xmlns:xlink="http://www.w3.org/1999/xlink" x="0px" y="0px"
	 viewBox="0 0 26 19" style="enable-background:new 0 0 26 19;" xml:space="preserve">
<style type="text/css">
	.st0{fill:none;}
</style>
<path class="st0" d="M20.7,17h-0.9V2.9c0-0.2-0.2-0.3-0.3-0.3s-0.3,0.1-0.3,0.3v0.6h-5.8V2.9c0-0.2-0.2-0.3-0.3-0.3
	c-0.2,0-0.3,0.1-0.3,0.3v0.6H6.9V2.9c0-0.2-0.2-0.3-0.3-0.3S6.2,2.7,6.2,2.9V17H5.3C5.2,17,5,17.1,5,17.3c0,0.2,0.2,0.3,0.3,0.3h2.4
	c0.2,0,0.3-0.1,0.3-0.3c0-0.2-0.2-0.3-0.3-0.3H6.9v-2h5.8v2h-0.9c-0.2,0-0.3,0.1-0.3,0.3c0,0.2,0.2,0.3,0.3,0.3h2.4
	c0.2,0,0.3-0.1,0.3-0.3c0-0.2-0.2-0.3-0.3-0.3h-0.9V4.1h5.8V17h-0.9c-0.2,0-0.3,0.1-0.3,0.3c0,0.2,0.2,0.3,0.3,0.3h2.4
	c0.2,0,0.3-0.1,0.3-0.3C21,17.1,20.8,17,20.7,17z M12.7,14.3H6.9v-1.1h5.8V14.3z M12.7,12.5H6.9v-1.1h5.8V12.5z M12.7,10.7H6.9V9.5
	h5.8V10.7z M12.7,8.9H6.9V7.7h5.8V8.9z M12.7,7.1H6.9V5.9h5.8V7.1z M12.7,5.3H6.9V4.1h5.8V5.3z"/>
<path class="st0" d="M20.7,17h-0.9V2.9c0-0.2-0.2-0.3-0.3-0.3s-0.3,0.1-0.3,0.3v0.6h-5.8V2.9c0-0.2-0.2-0.3-0.3-0.3
	c-0.2,0-0.3,0.1-0.3,0.3v0.6H6.9V2.9c0-0.2-0.2-0.3-0.3-0.3S6.2,2.7,6.2,2.9V17H5.3C5.2,17,5,17.1,5,17.3c0,0.2,0.2,0.3,0.3,0.3h2.4
	c0.2,0,0.3-0.1,0.3-0.3c0-0.2-0.2-0.3-0.3-0.3H6.9v-2h5.8v2h-0.9c-0.2,0-0.3,0.1-0.3,0.3c0,0.2,0.2,0.3,0.3,0.3h2.4
	c0.2,0,0.3-0.1,0.3-0.3c0-0.2-0.2-0.3-0.3-0.3h-0.9V4.1h5.8V17h-0.9c-0.2,0-0.3,0.1-0.3,0.3c0,0.2,0.2,0.3,0.3,0.3h2.4
	c0.2,0,0.3-0.1,0.3-0.3C21,17.1,20.8,17,20.7,17z M12.7,14.3H6.9v-1.1h5.8V14.3z M12.7,12.5H6.9v-1.1h5.8V12.5z M12.7,10.7H6.9V9.5
	h5.8V10.7z M12.7,8.9H6.9V7.7h5.8V8.9z M12.7,7.1H6.9V5.9h5.8V7.1z M12.7,5.3H6.9V4.1h5.8V5.3z"/>
</svg>
