<?xml version="1.0" encoding="utf-8"?>
<!-- Generator: Adobe Illustrator 19.0.0, SVG Export Plug-In . SVG Version: 6.00 Build 0)  -->
<svg version="1.1" id="Layer_1" xmlns="http://www.w3.org/2000/svg" xmlns:xlink="http://www.w3.org/1999/xlink" x="0px" y="0px"
	 viewBox="0 0 26 19" style="enable-background:new 0 0 26 19;" xml:space="preserve">
<style type="text/css">
	.st0{fill:#A6A7AB;}
</style>
<path class="st0" d="M16.4,0.4c1,0,1.7,0.8,1.7,1.8c0,1-0.8,1.8-1.7,1.8c-1,0-1.7-0.8-1.7-1.8C14.7,1.2,15.5,0.4,16.4,0.4z"/>
<path class="st0" d="M19.8,15.3c-0.4-0.1-0.8,0.1-1,0.5c-0.2,0.7-0.9,1-1.5,0.8l-2.5-0.8l1.6-3c0.5-1,0.2-2.2-0.8-2.8l-1.2-0.7
	c-0.1-0.1-0.1-0.2-0.1-0.3L15,8l0.4,0.6c0.3,0.5,0.8,0.7,1.3,0.7c0.3,0,0.5-0.1,0.7-0.2l2-1.2c0.4-0.2,0.5-0.7,0.3-1.1
	c-0.2-0.4-0.7-0.5-1.1-0.3l-2,1.2l-0.9-1.4c0-0.2,0-0.5,0-0.7c-0.1-0.4-0.4-0.7-0.7-0.9c-0.7-0.4-1.7-0.1-2.1,0.6l-0.2,0.4L7.1,2.9
	l0.3-0.5c0.1-0.3,0-0.7-0.3-0.8c-0.3-0.1-0.6,0-0.8,0.3L6,2.4L5.3,2.1C5,1.9,4.7,2.1,4.6,2.4C4.4,2.6,4.5,3,4.8,3.1l0.7,0.3L5.3,4
	c-0.1,0.3,0,0.7,0.3,0.8c0.1,0,0.2,0.1,0.3,0.1c0.2,0,0.4-0.1,0.5-0.3L6.6,4l5.6,2.8l-1,2c-0.3,0.5-0.3,1.1-0.2,1.7
	c0.2,0.6,0.5,1,1,1.3l0.9,0.5c0.2,0.1,0.2,0.3,0.1,0.5L11.8,15l-5-1.5c-0.4-0.1-0.8,0.1-1,0.5c-0.1,0.4,0.1,0.9,0.5,1l10.5,3.2
	c0.3,0.1,0.5,0.1,0.8,0.1c1.2,0,2.3-0.8,2.6-2C20.4,15.9,20.2,15.4,19.8,15.3z"/>
</svg>
