<?xml version="1.0" encoding="utf-8"?>
<!-- Generator: Adobe Illustrator 19.0.0, SVG Export Plug-In . SVG Version: 6.00 Build 0)  -->
<svg version="1.1" id="Layer_1" xmlns="http://www.w3.org/2000/svg" xmlns:xlink="http://www.w3.org/1999/xlink" x="0px" y="0px"
	 viewBox="0 0 14 15" style="enable-background:new 0 0 14 15;" xml:space="preserve">
<style type="text/css">
	.st0{fill:#FFFFFF;}
</style>
<path id="XMLID_2_" class="st0" d="M14,3.3c-0.5,0.2-1.1,0.4-1.6,0.4c0.6-0.3,1-0.9,1.3-1.5c-0.6,0.3-1.2,0.5-1.8,0.7
	C11.3,2.3,10.5,2,9.7,2C8.1,2,6.8,3.2,6.8,4.8c0,0.2,0,0.4,0.1,0.6C4.5,5.3,2.4,4.2,1,2.5C0.7,2.9,0.6,3.4,0.6,3.9
	c0,1,0.5,1.8,1.3,2.3C1.4,6.2,1,6.1,0.6,5.9l0,0c0,1.3,1,2.5,2.3,2.7C2.6,8.7,2.4,8.7,2.1,8.7c-0.2,0-0.4,0-0.5-0.1
	C2,9.7,3,10.5,4.3,10.5c-1,0.7-2.2,1.2-3.6,1.2c-0.2,0-0.5,0-0.7,0C1.3,12.5,2.8,13,4.4,13c5.3,0,8.2-4.2,8.2-7.9V4.7
	C13.1,4.3,13.6,3.9,14,3.3z"/>
</svg>
