<?xml version="1.0" encoding="utf-8"?>
<!-- Generator: Adobe Illustrator 19.0.0, SVG Export Plug-In . SVG Version: 6.00 Build 0)  -->
<svg version="1.1" id="Layer_1" xmlns="http://www.w3.org/2000/svg" xmlns:xlink="http://www.w3.org/1999/xlink" x="0px" y="0px"
	 viewBox="0 0 26 19" style="enable-background:new 0 0 26 19;" xml:space="preserve">
<style type="text/css">
	.st0{fill:none;}
</style>
<path class="st0" d="M19.1,4.6"/>
<path class="st0" d="M13,7.1"/>
<path class="st0" d="M24.5,8.2c-0.6,0.3-1.1,0.4-1.6,0.4c-0.2,0-0.4,0-0.6-0.1c-0.7-0.1-1.3-0.5-1.8-1c-0.3-0.2-0.6-0.5-1-0.7
	c-0.6-0.3-1.4-0.5-2.2-0.5c-0.1,0-0.2,0-0.2,0c-1.1,0-2,0.5-2.8,1c-0.5,0.3-1,0.4-1.5,0.4c-0.2,0-0.5,0-0.7-0.1
	c-0.4-0.1-0.7-0.3-1-0.5C11.1,7.1,10.9,7,10.8,7c-0.7-0.4-1.4-0.5-2.2-0.5h0c-1.1,0-2.1,0.3-2.9,1c-1.1,0.9-1.8,1.1-2,1.1
	c0,0-0.2,0-0.5,0c-0.7,0-1.3-0.2-1.9-0.5C0.8,7.9,0.4,7.8,0,7.8c0.1,0,0.1,0.1,0.2,0.1C0.5,8.1,0.8,8.3,1,8.6C1.1,8.7,1.3,8.8,1.4,9
	c0.5,0.5,1.5,1,2.7,1c0.6,0,1.2-0.1,1.7-0.4C6,9.5,6.2,9.4,6.4,9.3C6.6,9.1,6.9,9,7.3,8.9c0.4-0.1,1-0.1,1-0.1
	c0.6,0,1.1,0.3,1.5,0.6c1.1,0.8,2.1,1.1,3.2,1.2l0.1,0c0.8,0,1.4-0.1,2.1-0.4c0.3-0.1,0.6-0.3,0.8-0.5c0.5-0.4,1.1-0.8,1.8-0.8
	c0,0,0.1,0,0.1,0c0.4,0,1,0.1,1.6,0.4c0.7,0.4,1.6,0.8,2.5,0.8c0.1,0,0.3,0,0.4,0c0.9-0.1,1.7-0.4,2.3-1c0.1-0.1,0.3-0.2,0.4-0.4
	c0.3-0.3,0.6-0.6,0.9-0.8c0,0,0.1,0,0.1,0C25.6,7.8,25.1,7.9,24.5,8.2z"/>
<path class="st0" d="M19.1,8.7"/>
<path class="st0" d="M13,11.2"/>
<path class="st0" d="M24.5,12.3c-0.6,0.3-1.1,0.4-1.6,0.4c-0.2,0-0.4,0-0.6-0.1c-0.7-0.1-1.3-0.5-1.8-1c-0.3-0.2-0.6-0.5-1-0.7
	c-0.6-0.3-1.4-0.5-2.2-0.5c-0.1,0-0.2,0-0.2,0c-1.1,0-2,0.5-2.8,1c-0.5,0.3-1,0.4-1.5,0.4c-0.2,0-0.5,0-0.7-0.1
	c-0.4-0.1-0.7-0.3-1-0.5c-0.2-0.1-0.3-0.2-0.5-0.3c-0.7-0.4-1.4-0.5-2.2-0.5h0c-1.1,0-2.1,0.3-2.9,1c-1.1,0.9-1.8,1.1-2,1.1
	c0,0-0.2,0-0.5,0c-0.7,0-1.3-0.2-1.9-0.5C0.8,12,0.4,11.9,0,11.8c0.1,0,0.1,0.1,0.2,0.1c0.3,0.2,0.5,0.5,0.8,0.7
	c0.1,0.1,0.2,0.3,0.4,0.4c0.5,0.5,1.5,1,2.7,1c0.6,0,1.2-0.1,1.7-0.4c0.2-0.1,0.3-0.2,0.5-0.3c0.3-0.2,0.6-0.3,0.9-0.4
	c0.4-0.1,1-0.1,1-0.1c0.6,0,1.1,0.3,1.5,0.6c1.1,0.8,2.1,1.1,3.2,1.2l0.1,0c0.8,0,1.4-0.1,2.1-0.4c0.3-0.1,0.6-0.3,0.8-0.5
	c0.5-0.4,1.1-0.8,1.8-0.8c0,0,0.1,0,0.1,0c0.4,0,1,0.1,1.6,0.4c0.7,0.4,1.6,0.8,2.5,0.8c0.1,0,0.3,0,0.4,0c0.9-0.1,1.7-0.4,2.3-1
	c0.1-0.1,0.3-0.2,0.4-0.4c0.3-0.3,0.6-0.6,0.9-0.8c0,0,0.1,0,0.1,0C25.6,11.9,25.1,12,24.5,12.3z"/>
</svg>
