<?xml version="1.0" encoding="utf-8"?>
<!-- Generator: Adobe Illustrator 19.0.0, SVG Export Plug-In . SVG Version: 6.00 Build 0)  -->
<svg version="1.1" id="Layer_1" xmlns="http://www.w3.org/2000/svg" xmlns:xlink="http://www.w3.org/1999/xlink" x="0px" y="0px"
	 viewBox="0 0 14 15" style="enable-background:new 0 0 14 15;" xml:space="preserve">
<style type="text/css">
	.st0{fill:#FFFFFF;}
</style>
<path id="XMLID_5_" class="st0" d="M5.5,10.7C5.4,10.7,5.4,10.7,5.5,10.7C4.7,10.4,4,10.2,3.4,9.8C3,9.6,2.8,9.1,3,8.6
	c0.1-0.4,0.5-0.8,1-0.8c0.2,0,0.4,0.1,0.6,0.2c0.5,0.3,1.1,0.5,1.7,0.6c1.1,0.2,2.1,0,3.1-0.6c0.5-0.3,1-0.2,1.3,0.2
	c0.4,0.4,0.3,1.2-0.1,1.5c-0.6,0.4-1.3,0.7-1.9,0.9c-0.1,0-0.1,0-0.2,0.1c0.1,0.1,0.1,0.1,0.1,0.2c0.6,0.6,1.3,1.3,1.9,1.9
	c0.5,0.5,0.4,1.3-0.2,1.7c-0.4,0.2-0.9,0.2-1.2-0.2c-0.6-0.6-1.2-1.2-1.8-1.9c-0.1-0.1-0.1-0.1-0.3,0c-0.6,0.6-1.2,1.2-1.8,1.8
	c-0.4,0.4-1,0.4-1.5,0c-0.4-0.4-0.4-1.1,0-1.5c0.6-0.6,1.3-1.3,1.9-1.9C5.4,10.8,5.5,10.7,5.5,10.7z"/>
<path id="XMLID_2_" class="st0" d="M6.9,7.7C5,7.7,3.4,6.1,3.4,4.1C3.4,2.2,5,0.5,7,0.5c1.9,0,3.5,1.6,3.5,3.7
	C10.4,6.2,8.8,7.7,6.9,7.7z M6.9,5.6c0.8,0,1.5-0.7,1.5-1.5S7.7,2.6,6.9,2.6C6,2.6,5.4,3.3,5.4,4.1C5.4,4.9,6.1,5.6,6.9,5.6z"/>
</svg>
