<?xml version="1.0" encoding="utf-8"?>
<!-- Generator: Adobe Illustrator 19.0.0, SVG Export Plug-In . SVG Version: 6.00 Build 0)  -->
<svg version="1.1" id="Layer_1" xmlns="http://www.w3.org/2000/svg" xmlns:xlink="http://www.w3.org/1999/xlink" x="0px" y="0px"
	 viewBox="0 0 87 95" style="enable-background:new 0 0 87 95;" xml:space="preserve">
<style type="text/css">
	.st0{fill:#D44055;}
</style>
<path id="XMLID_2_" class="st0" d="M80.8,27.6c-1.5-1.5-3.3-2.7-5.2-3.6c3.5-2.4,5.7-6.4,5.7-10.9C81.3,5.9,75.4,0,68.2,0
	S55,5.9,55,13.2c0,4.4,2.2,8.3,5.5,10.7c-4.5,1.7-8.3,5-10.8,9.3c-0.7,1.3-2.1,2.1-3.6,2.1h-6.2c-1.5,0-2.9-0.8-3.6-2.1
	c-2.5-4.3-6.3-7.5-10.8-9.3c3.3-2.4,5.5-6.3,5.5-10.7C30.9,5.9,25.1,0,17.8,0C10.6,0,4.7,5.9,4.7,13.2c0,4.5,2.3,8.5,5.8,10.9
	C4.3,26.8,0,33.1,0,40.3v14.6c0,3,2,5.5,4.7,6.3v20.7C4.7,84.7,7,87,9.8,87h15.9c2.8,0,5.2-2.3,5.2-5.2V45c3,2,6.6,3.2,10.3,3.2
	l3.5,0c2.6,0,5.1-0.5,7.5-1.6c1-0.4,1.9-1,2.8-1.6v36.9c0,2.9,2.3,5.2,5.2,5.2h15.9c2.8,0,5.2-2.3,5.2-5.2V61.2
	c2.7-0.8,4.7-3.4,4.7-6.3V40.3C86,35.5,84.1,31,80.8,27.6z M68.2,3.9c5.1,0,9.3,4.2,9.3,9.3c0,5.1-4.2,9.3-9.3,9.3
	c-5.1,0-9.3-4.2-9.3-9.3C58.9,8,63.1,3.9,68.2,3.9z M8.6,13.2c0-5.1,4.2-9.3,9.3-9.3c5.1,0,9.3,4.2,9.3,9.3c0,5.1-4.2,9.3-9.3,9.3
	C12.7,22.4,8.6,18.3,8.6,13.2z M41.2,44.2c-4.1,0-8-1.7-10.8-4.8c-0.5-0.5-1.2-0.8-1.8-0.6c-0.9,0.2-1.6,1-1.6,1.9v41.1
	c0,0.7-0.6,1.3-1.3,1.3h-4.9c-0.6,0-1.1-0.5-1.1-1.1V62.7c0-1-0.8-1.9-1.8-2c-1.1-0.1-2.1,0.8-2.1,1.9V82c0,0.6-0.5,1.1-1.1,1.1H9.8
	c-0.7,0-1.3-0.6-1.3-1.3V59.5c0-1.1-0.9-1.9-1.9-1.9c-1.5,0-2.7-1.2-2.7-2.7V40.4c0-7.8,6.3-14.2,14.1-14.1c6.2,0,11.9,3.4,15,8.8
	c1.4,2.5,4.1,4,7,4h2.7c1.3,0,2.5,1,2.6,2.3c0.1,1.5-1.1,2.8-2.6,2.8L41.2,44.2L41.2,44.2z M82.1,54.8c0,1.5-1.2,2.7-2.7,2.7
	c-1.1,0-1.9,0.9-1.9,1.9v22.3c0,0.7-0.6,1.3-1.3,1.3h-4.9c-0.6,0-1.1-0.5-1.1-1.1V62.7c0-1-0.8-1.9-1.8-2c-1.1-0.1-2.1,0.8-2.1,1.9
	V82c0,0.6-0.5,1.1-1.1,1.1h-4.9c-0.7,0-1.3-0.6-1.3-1.3v-41c0-0.7-0.4-1.4-1-1.8c-0.8-0.4-1.8-0.3-2.4,0.4c-1.4,1.5-3,2.7-4.9,3.6
	c-0.6,0.3-1.2,0.5-1.9,0.7c0.2-0.6,0.3-1.3,0.3-2c0-1-0.3-2-0.7-2.9c2-0.6,3.6-1.9,4.7-3.7c3.1-5.4,8.9-8.7,15.1-8.7
	c3.7,0,7.2,1.5,9.9,4.1c2.6,2.6,4.1,6.1,4.1,9.9L82.1,54.8L82.1,54.8z"/>
</svg>
