<?xml version="1.0" encoding="utf-8"?>
<!-- Generator: Adobe Illustrator 19.0.0, SVG Export Plug-In . SVG Version: 6.00 Build 0)  -->
<svg version="1.1" id="Layer_1" xmlns="http://www.w3.org/2000/svg" xmlns:xlink="http://www.w3.org/1999/xlink" x="0px" y="0px"
	 viewBox="0 0 128 106" style="enable-background:new 0 0 128 106;" xml:space="preserve">
<style type="text/css">
	.st0{fill:#D44055;}
</style>
<path id="XMLID_6_" class="st0" d="M100.8,76.7c-0.1,0-0.2,0-0.2,0l-15.6-2.3c-2.5-1.6-2.8-5.7-2.8-10.1c4.9-5.1,8-12.3,8-20.2v-0.6
	c3.8-3.4,6-8.2,6-13.4v-12C96.2,8,88.1,0,78.3,0H52.2c-3.7,0-6.9,2.6-7.7,6.1c-6.9,0.8-12.2,6.7-12.2,13.8v10c0,5.2,2.2,10,6,13.4
	V44c0,7.9,3.1,15.1,8,20.2c0,4.4-0.2,8.5-2.8,10.1l-15.6,2.3c-0.1,0-0.2,0-0.2,0c-3.4,1-6.4,3.1-8.5,6.2c-1.9,2.8-3,6.2-3,9.5v7.8
	c0,3.2,2.9,5.9,6.4,5.9h83.1c3.5,0,6.4-2.6,6.4-5.9v-7.8c0-3.3-1.1-6.7-3-9.5C107.1,79.8,104.2,77.6,100.8,76.7z M64.2,71.9
	c5.2,0,10.1-1.7,14.2-4.6c0.2,3.4,0.9,7.2,3.7,9.5c-1.5,7.7-9,13.4-17.9,13.4c-8.9,0-16.4-5.7-17.9-13.4c2.8-2.3,3.5-6.1,3.7-9.5
	C54.1,70.2,59,71.9,64.2,71.9z M42.1,42.7c0-0.1,0-0.2,0-0.3V32c0-3.4,2.8-6.1,6.1-6.1h34.1c1,0,1.9-0.8,1.9-1.9
	c0-1-0.8-1.9-1.9-1.9H48.2c-5.5,0-9.9,4.4-9.9,9.9v5.7c-1.5-2.3-2.3-4.9-2.3-7.7v-10c0-5.6,4.6-10.2,10.1-10.2c1,0,1.9-0.8,1.9-1.9
	c0-2.3,1.9-4.1,4.1-4.1h26.1c7.8,0,14.2,6.4,14.2,14.2v12c0,2.8-0.8,5.4-2.3,7.7v-7.7c0-1-0.8-1.9-1.9-1.9c-1,0-1.9,0.8-1.9,1.9v14
	c0,13.3-9.9,24.2-22.2,24.2C52,68.2,42.1,57.3,42.1,44V42.7z M108.4,100.1c0,1.1-1.2,2.1-2.7,2.1H22.7c-1.5,0-2.7-1-2.7-2.1v-7.8
	c0-4.8,2.9-10.4,8.6-12.1l14.2-2.1c2.1,9.1,11,15.8,21.5,15.8c10.5,0,19.4-6.7,21.5-15.8l14.2,2.1c5.6,1.6,8.6,7.3,8.6,12.1V100.1z"
	/>
<path id="XMLID_4_" class="st0" d="M12.1,84.2H5.1c-0.6,0-1.1-0.4-1.1-0.7v-5c0-2.8,1.7-6.2,5-7.1l10.2-1.5c0,0,0.1,0,0.1,0
	c0,0,0,0,0.1,0c0.1,0,0.1,0,0.2-0.1c0,0,0,0,0,0c0.1,0,0.1,0,0.2-0.1c0,0,0,0,0,0c0,0,0,0,0,0c0,0,0,0,0,0c2.3-1.3,3.1-3.7,3.3-6
	c2.5,1.5,5.4,2.3,8.4,2.3c2.6,0,5-0.6,7.3-1.7c0.9-0.5,1.3-1.6,0.8-2.5c-0.5-0.9-1.6-1.3-2.5-0.8c-1.8,0.9-3.7,1.3-5.6,1.3
	c-7.5,0-13.7-6.7-13.7-15v-8c0-1.8,1.5-3.3,3.3-3.3h4.8c1,0,1.9-0.8,1.9-1.9c0-1-0.8-1.9-1.9-1.9h-4.8c-3.9,0-7.1,3.2-7.1,7.1v1
	c-0.2-0.7-0.3-1.3-0.3-2v-6.5c0-3.3,2.6-5.9,5.9-5.9c1,0,1.9-0.8,1.9-1.9c0-1.1,0.9-2,2-2h2.4c1,0,1.9-0.8,1.9-1.9
	c0-1-0.8-1.9-1.9-1.9h-2.4c-2.6,0-4.8,1.7-5.5,4c-4.6,0.8-8,4.7-8,9.5v6.5c0,3.5,1.5,6.7,4,9.1v0c0,5.3,2.1,10.1,5.4,13.6
	c0,2.4-0.2,4.5-1.4,5.4l-10,1.5c-0.1,0-0.2,0-0.2,0c-5.2,1.4-7.9,6.5-7.9,10.8v5C0.2,86,2.4,88,5.1,88h7.1c1,0,1.9-0.8,1.9-1.9
	C14,85.1,13.2,84.2,12.1,84.2z"/>
<path id="XMLID_2_" class="st0" d="M120.4,67.7c-0.1,0-0.2,0-0.2,0l-10-1.5c-1.2-0.9-1.4-3-1.4-5.4c3.3-3.4,5.4-8.2,5.4-13.6v0
	c2.6-2.3,4-5.6,4-9.1V27.9c0-5.5-4.4-9.9-9.9-9.9h-6c-1,0-1.9,0.8-1.9,1.9c0,1,0.8,1.9,1.9,1.9h6c3.4,0,6.1,2.8,6.1,6.1v10.1
	c0,0.7-0.1,1.4-0.3,2v-1c0-3.9-3.2-7.1-7.1-7.1h-4.8c-1,0-1.9,0.8-1.9,1.9c0,1,0.8,1.9,1.9,1.9h4.8c1.8,0,3.3,1.5,3.3,3.3v8
	c0,8.3-6.1,15-13.7,15c-2,0-3.9-0.4-5.6-1.3c-0.9-0.5-2.1-0.1-2.5,0.8c-0.5,0.9-0.1,2.1,0.8,2.5c2.3,1.1,4.8,1.7,7.3,1.7
	c3,0,5.9-0.8,8.4-2.3c0.3,2.3,1.1,4.7,3.3,6c0,0,0,0,0,0c0,0,0,0,0,0c0,0,0,0,0,0c0.1,0,0.1,0.1,0.2,0.1c0,0,0,0,0,0
	c0.1,0,0.1,0,0.2,0.1c0,0,0,0,0.1,0c0,0,0.1,0,0.1,0l10.2,1.5c3.3,1,5,4.3,5,7.1v5c0,0.3-0.5,0.7-1.1,0.7h-7.1c-1,0-1.9,0.8-1.9,1.9
	c0,1,0.8,1.9,1.9,1.9h7.1c2.7,0,4.8-2,4.8-4.5v-5C128.2,74.2,125.5,69.1,120.4,67.7L120.4,67.7z"/>
</svg>
