<?xml version="1.0" encoding="utf-8"?>
<!-- Generator: Adobe Illustrator 19.0.0, SVG Export Plug-In . SVG Version: 6.00 Build 0)  -->
<svg version="1.1" id="Layer_1" xmlns="http://www.w3.org/2000/svg" xmlns:xlink="http://www.w3.org/1999/xlink" x="0px" y="0px"
	 viewBox="0 0 14 15" style="enable-background:new 0 0 14 15;" xml:space="preserve">
<style type="text/css">
	.st0{fill:#FFFFFF;}
</style>
<path class="st0" d="M13.4,10.5C13,10,12.5,9.6,12,9.1c-0.4-0.4-0.4-0.6-0.1-1.1c0.4-0.5,0.8-1,1.1-1.5C13.4,6.1,13.8,5.6,14,5
	c0.1-0.4,0-0.5-0.4-0.6c-0.1,0-0.1,0-0.2,0l-2.2,0c-0.3,0-0.4,0.1-0.5,0.4c-0.1,0.3-0.3,0.6-0.4,1c-0.4,0.7-0.7,1.4-1.3,2
	C8.8,7.8,8.7,8,8.5,7.9C8.2,7.8,8.2,7.4,8.2,7.3l0-2.5c0-0.4-0.1-0.5-0.5-0.6l-2.3,0C5,4.2,4.9,4.3,4.7,4.5C4.6,4.6,4.6,4.7,4.8,4.7
	C5.2,4.8,5.4,5,5.5,5.4c0.1,0.6,0.1,1.2,0,1.8c0,0.2,0,0.4-0.1,0.5C5.3,8,5.1,8,4.8,7.9C4.6,7.7,4.5,7.5,4.3,7.3
	C3.8,6.5,3.3,5.7,3,4.8C2.9,4.6,2.7,4.4,2.4,4.4c-0.7,0-1.3,0-2,0C0,4.4-0.1,4.6,0.1,5c0.7,1.6,1.5,3.1,2.6,4.5
	c0.5,0.7,1.2,1.4,2,1.8c0.9,0.5,1.9,0.7,2.9,0.6c0.5,0,0.6-0.1,0.6-0.6c0-0.3,0.1-0.6,0.2-0.9c0.2-0.3,0.4-0.3,0.7-0.2
	c0.1,0.1,0.3,0.2,0.4,0.3c0.3,0.3,0.5,0.6,0.8,0.9c0.4,0.4,0.8,0.6,1.3,0.5l2,0c0.3,0,0.5-0.4,0.3-0.8
	C13.8,10.9,13.6,10.7,13.4,10.5z"/>
</svg>
