<?xml version="1.0" encoding="utf-8"?>
<!-- Generator: Adobe Illustrator 19.0.0, SVG Export Plug-In . SVG Version: 6.00 Build 0)  -->
<svg version="1.1" id="Layer_1" xmlns="http://www.w3.org/2000/svg" xmlns:xlink="http://www.w3.org/1999/xlink" x="0px" y="0px"
	 viewBox="0 0 20 16" style="enable-background:new 0 0 20 16;" xml:space="preserve">
<style type="text/css">
	.st0{fill:#606161;}
</style>
<path id="XMLID_2_" class="st0" d="M19.7,8.8c0-0.1-0.1-0.3-0.1-0.3l-7.8-7.8c-0.2-0.2-0.5-0.2-0.7,0L3.6,8.1l0,0L2.9,8.8l0,0
	l-2.4,2.4c-0.2,0.2-0.2,0.5,0,0.7c0.1,0.1,0.2,0.1,0.3,0.1c0.1,0,0.3,0,0.4-0.1l0.2-0.2l2.2-2.2l1.2-1.2v0l0.4-0.4l7.4,7.4
	c0.1,0.1,0.2,0.1,0.3,0.1c0.1,0,0.3-0.1,0.4-0.1l6.3-6.3C19.6,9,19.7,8.9,19.7,8.8z M13.1,11l-1.7,1.7l-2-2L11.1,9l-2-2L7.4,8.8
	L5.8,7.2l1.7-1.7l1.6,1.6L11.2,5L9.7,3.4l1.7-1.7L13,3.2L11.2,5l2,2L11.1,9L13.1,11l2.1-2.1l-2-2l1.7-1.7l2,2l-1.7,1.7l1.6,1.6
	l-2.1,2.1L13.1,11z"/>
</svg>
