<?xml version="1.0" encoding="utf-8"?>
<!-- Generator: Adobe Illustrator 19.0.0, SVG Export Plug-In . SVG Version: 6.00 Build 0)  -->
<svg version="1.1" id="Layer_1" xmlns="http://www.w3.org/2000/svg" xmlns:xlink="http://www.w3.org/1999/xlink" x="0px" y="0px"
	 viewBox="0 0 87 95" style="enable-background:new 0 0 87 95;" xml:space="preserve">
<style type="text/css">
	.st0{fill:#D44055;}
</style>
<path id="XMLID_12_" class="st0" d="M66.7,5.9H51.8c0,0,0,0,0,0c-1.3-1.8-3.5-3-5.9-3h-3.8c-1-1.8-3-3-5.1-3c-2.1,0-4,1.2-5.1,3
	h-3.8c-2.4,0-4.6,1.2-5.9,3c0,0,0,0,0,0H7.3c-4,0-7.3,3.3-7.3,7.3v74.4c0,4,3.3,7.3,7.3,7.3h59.4c4,0,7.3-3.3,7.3-7.3V13.3
	C74,9.2,70.7,5.9,66.7,5.9z M23.6,10.3c0-2.5,2-4.6,4.5-4.6h4.7c0.6,0,1.1-0.4,1.3-0.9c0.4-1.2,1.6-2,2.9-2c1.3,0,2.4,0.8,2.9,2
	c0.2,0.6,0.7,0.9,1.3,0.9h4.7c2.5,0,4.5,2,4.5,4.6v4.6H23.6V10.3z M71.2,87.7c0,2.5-2,4.6-4.5,4.6H7.3c-2.5,0-4.5-2-4.5-4.6V13.3
	c0-2.5,2-4.6,4.5-4.6h13.6c-0.1,0.5-0.2,1-0.2,1.6v5.9c0,0.8,0.6,1.4,1.4,1.4h29.7c0.8,0,1.4-0.6,1.4-1.4v-5.9
	c0-0.5-0.1-1.1-0.2-1.6h13.6c2.5,0,4.5,2,4.5,4.6V87.7z"/>
<path id="XMLID_10_" class="st0" d="M66.7,11.9h-8.9c-0.8,0-1.4,0.6-1.4,1.4c0,0.8,0.6,1.4,1.4,1.4h7.5v71.6H8.7V14.7h7.5
	c0.8,0,1.4-0.6,1.4-1.4c0-0.8-0.6-1.4-1.4-1.4H7.3c-0.8,0-1.4,0.6-1.4,1.4v74.4c0,0.8,0.6,1.4,1.4,1.4h59.4c0.8,0,1.4-0.6,1.4-1.4
	V13.3C68.1,12.5,67.4,11.9,66.7,11.9z"/>
<path id="XMLID_8_" class="st0" d="M37,5.9c-0.4,0-0.7,0.1-1,0.4c-0.3,0.3-0.4,0.6-0.4,1s0.1,0.7,0.4,1c0.3,0.3,0.6,0.4,1,0.4
	c0.4,0,0.7-0.1,1-0.4c0.3-0.3,0.4-0.6,0.4-1c0-0.4-0.1-0.7-0.4-1C37.7,6.1,37.4,5.9,37,5.9z"/>
<path id="XMLID_2_" class="st0" d="M13.4,66.8c0,2.4,2,4.4,4.4,4.4c2.4,0,4.4-2,4.4-4.4c0-0.8-0.2-1.5-0.6-2.2l6.4-7.2
	c0.5,0.2,1.1,0.3,1.7,0.3c1.3,0,2.4-0.5,3.2-1.4l8.8,4c0,0.1,0,0.3,0,0.4c0,2.4,2,4.4,4.4,4.4c2.4,0,4.4-2,4.4-4.4
	c0-1.3-0.6-2.5-1.5-3.3L56,40c0.1,0,0.2,0,0.3,0c2.4,0,4.4-2,4.4-4.4c0-2.4-2-4.4-4.4-4.4s-4.4,2-4.4,4.4c0,1.3,0.6,2.5,1.5,3.3
	l-7.2,17.6c-0.1,0-0.2,0-0.3,0c-1.3,0-2.4,0.5-3.2,1.4l-8.8-4c0-0.1,0-0.3,0-0.4c0-2.4-2-4.4-4.4-4.4c-2.4,0-4.4,2-4.4,4.4
	c0,0.8,0.2,1.5,0.6,2.2l-6.4,7.2c-0.5-0.2-1.1-0.3-1.7-0.3C15.3,62.5,13.4,64.4,13.4,66.8z M56.3,34c0.9,0,1.6,0.7,1.6,1.6
	c0,0.9-0.7,1.6-1.6,1.6c-0.9,0-1.6-0.7-1.6-1.6C54.7,34.7,55.4,34,56.3,34z M45.9,59.3c0.9,0,1.6,0.7,1.6,1.6c0,0.9-0.7,1.6-1.6,1.6
	c-0.9,0-1.6-0.7-1.6-1.6C44.3,60,45,59.3,45.9,59.3z M29.6,51.9c0.9,0,1.6,0.7,1.6,1.6c0,0.9-0.7,1.6-1.6,1.6
	c-0.9,0-1.6-0.7-1.6-1.6C28,52.6,28.7,51.9,29.6,51.9z M19.3,66.8c0,0.9-0.7,1.6-1.6,1.6c-0.9,0-1.6-0.7-1.6-1.6
	c0-0.9,0.7-1.6,1.6-1.6C18.6,65.3,19.3,66,19.3,66.8z"/>
</svg>
