<?xml version="1.0" encoding="utf-8"?>
<!-- Generator: Adobe Illustrator 19.0.0, SVG Export Plug-In . SVG Version: 6.00 Build 0)  -->
<svg version="1.1" id="Layer_1" xmlns="http://www.w3.org/2000/svg" xmlns:xlink="http://www.w3.org/1999/xlink" x="0px" y="0px"
	 viewBox="0 -2 20 20" style="enable-background:new 0 -2 20 20;" xml:space="preserve">
<style type="text/css">
	.st0{fill:#D5465A;}
</style>
<path id="XMLID_6_" class="st0" d="M0.7,17.5h18.6c0.4,0,0.7-0.3,0.7-0.7V0.6c0-0.4-0.3-0.7-0.7-0.7h-3.5v-0.7
	c0-0.4-0.3-0.7-0.7-0.7s-0.7,0.3-0.7,0.7v0.6H5.7v-0.6c0-0.4-0.3-0.7-0.7-0.7c-0.4,0-0.7,0.3-0.7,0.7v0.6H0.7C0.3-0.2,0,0.2,0,0.6
	v16.2C0,17.2,0.3,17.5,0.7,17.5z M1.4,1.3h2.9v0.4c0,0.4,0.3,0.7,0.7,0.7c0.4,0,0.7-0.3,0.7-0.7V1.3h8.6v0.4c0,0.4,0.3,0.7,0.7,0.7
	s0.7-0.3,0.7-0.7V1.3h2.8v1.9H1.4V1.3z M1.4,4.6h17.2V16H1.4V4.6z"/>
<path id="XMLID_4_" class="st0" d="M15.1,8H4.9C4.5,8,4.2,8.3,4.2,8.7s0.3,0.7,0.7,0.7h10.2c0.4,0,0.7-0.3,0.7-0.7S15.5,8,15.1,8z"
	/>
<path id="XMLID_2_" class="st0" d="M10,11.5H4.9c-0.4,0-0.7,0.3-0.7,0.7s0.3,0.7,0.7,0.7H10c0.4,0,0.7-0.3,0.7-0.7
	S10.4,11.5,10,11.5z"/>
</svg>
