<?xml version="1.0" encoding="utf-8"?>
<!-- Generator: Adobe Illustrator 19.0.0, SVG Export Plug-In . SVG Version: 6.00 Build 0)  -->
<svg version="1.1" id="Layer_1" xmlns="http://www.w3.org/2000/svg" xmlns:xlink="http://www.w3.org/1999/xlink" x="0px" y="0px"
	 viewBox="0 0 87 95" style="enable-background:new 0 0 87 95;" xml:space="preserve">
<style type="text/css">
	.st0{fill:#D44055;}
</style>
<path id="XMLID_5_" class="st0" d="M81.7,48.6c-0.6-1-0.4-2.2,0.3-3l1.7-1.9c1.4-1.6,2.1-3.7,1.8-5.8c-0.3-2.1-1.4-4-3.1-5.2
	l-2.1-1.5c-0.9-0.6-1.3-1.8-1-2.9l0.7-2.5c0.6-2,0.3-4.2-0.9-6c-1.1-1.8-3-3-5.1-3.3L71.4,16c-1.1-0.2-2-1-2.2-2.1l-0.4-2.6
	c-0.6-3.6-3.7-6.2-7.3-6.2c-0.7,0-1.4,0.1-2.1,0.3l-2.5,0.7c-0.2,0.1-0.5,0.1-0.7,0.1c-0.8,0-1.6-0.4-2.1-1.1l-1.5-2.1
	c-1.4-2-3.6-3.1-6-3.1c-1.8,0-3.6,0.7-5,2l-1.9,1.8c-0.5,0.4-1.1,0.7-1.8,0.7c-0.4,0-0.9-0.1-1.2-0.3l-2.3-1.2
	c-1.1-0.6-2.3-0.9-3.6-0.9c-3.1,0-5.8,1.8-6.9,4.7L23,9c-0.4,1-1.3,1.6-2.4,1.6c-0.1,0-0.1,0-0.1,0l-2.6-0.1c-0.1,0-0.3,0-0.4,0
	c-2,0-4,0.9-5.4,2.4c-1.4,1.5-2.1,3.5-2,5.6l0.2,2.6c0.1,1.1-0.6,2.2-1.6,2.6l-2.4,1c-2,0.8-3.5,2.4-4.2,4.5c-0.7,2-0.5,4.2,0.6,6.1
	l1.3,2.3c0.6,1,0.4,2.2-0.3,3l-1.7,1.9c-1.4,1.6-2.1,3.7-1.8,5.8c0.2,2.1,1.4,4,3.1,5.2l2.1,1.5c0.9,0.6,1.3,1.8,1,2.9l-0.7,2.5
	c-0.6,2-0.3,4.2,0.9,6c1.1,1.8,3,3,5.1,3.3l2.6,0.4c1.1,0.2,2,1,2.2,2.1l0.4,2.6c0.6,3.6,3.7,6.2,7.3,6.2l0,0c0.7,0,1.4-0.1,2.1-0.3
	l2.5-0.7c0.2-0.1,0.5-0.1,0.7-0.1c0.8,0,1.6,0.4,2.1,1.1l1.5,2.1c1.4,1.9,3.6,3.1,6,3.1c1.8,0,3.6-0.7,5-2l1.9-1.8
	c0.5-0.4,1.1-0.7,1.8-0.7c0.4,0,0.9,0.1,1.2,0.3l2.3,1.2c1.1,0.6,2.3,0.9,3.6,0.9c3.1,0,5.8-1.8,6.9-4.7l1-2.4
	c0.4-1,1.4-1.7,2.6-1.6l2.6,0.1c0.1,0,0.3,0,0.4,0c2,0,4-0.9,5.4-2.4c1.4-1.5,2.1-3.5,2-5.6L75.4,65c-0.1-1.1,0.6-2.2,1.6-2.6l2.4-1
	c2-0.8,3.5-2.4,4.2-4.5c0.7-2,0.5-4.2-0.6-6.1L81.7,48.6z M80.1,40.5l-1.7,1.9c-2.1,2.4-2.5,5.8-0.9,8.6l1.3,2.3
	c0.4,0.7,0.4,1.4,0.2,2.1c-0.2,0.7-0.8,1.3-1.5,1.6l-2.4,1c-2.9,1.2-4.8,4.2-4.5,7.4l0.2,2.6c0.1,0.7-0.2,1.4-0.7,2
	c-0.5,0.6-1.3,0.9-2,0.8l-2.6-0.1c-3.2-0.2-6.1,1.7-7.3,4.7l-1,2.4c-0.4,1-1.3,1.6-2.4,1.6c-0.4,0-0.9-0.1-1.2-0.3l-2.3-1.2
	c-1.1-0.6-2.3-0.9-3.6-0.9c-1.9,0-3.6,0.7-5,2l-1.9,1.8c-0.5,0.4-1.1,0.7-1.8,0.7c-0.9,0-1.6-0.4-2.1-1.1L35.4,78
	c-1.4-1.9-3.6-3.1-6-3.1c-0.7,0-1.4,0.1-2.1,0.3l-2.5,0.7C24.6,76,24.3,76,24,76c-1.3,0-2.3-0.9-2.6-2.2L21,71.3
	c-0.5-3.1-3-5.6-6.1-6.1l-2.6-0.4c-0.7-0.1-1.4-0.5-1.8-1.2c-0.4-0.6-0.5-1.4-0.3-2.1L11,59c0.9-3.1-0.3-6.3-2.9-8.1l-2.1-1.5
	c-0.6-0.4-1-1.1-1.1-1.8c-0.1-0.7,0.1-1.5,0.6-2l1.7-1.9c2.1-2.4,2.5-5.8,0.9-8.6l-1.3-2.3c-0.4-0.7-0.4-1.4-0.2-2.1
	c0.2-0.7,0.8-1.3,1.5-1.6l2.4-1c2.9-1.2,4.8-4.2,4.5-7.4l-0.2-2.6c-0.1-0.7,0.2-1.4,0.7-2c0.5-0.6,1.3-0.9,2-0.8l2.6,0.1
	c3.2,0.2,6.1-1.7,7.3-4.7l1-2.4c0.4-1,1.3-1.6,2.4-1.6c0.4,0,0.9,0.1,1.2,0.3l2.3,1.2c1.1,0.6,2.3,0.9,3.6,0.9c1.9,0,3.6-0.7,5-2
	l1.9-1.8c0.5-0.4,1.1-0.7,1.8-0.7c0.9,0,1.6,0.4,2.1,1.1L50.1,8c1.4,2,3.6,3.1,6,3.1c0.7,0,1.4-0.1,2.1-0.3l2.5-0.7
	C61,10,61.3,10,61.6,10c1.3,0,2.3,0.9,2.6,2.2l0.4,2.6c0.5,3.1,3,5.6,6.1,6.1l2.6,0.4c0.7,0.1,1.4,0.5,1.8,1.2
	c0.4,0.6,0.5,1.4,0.3,2.1L74.6,27c-0.9,3.1,0.3,6.3,2.9,8.1l2.1,1.5c0.6,0.4,1,1.1,1.1,1.8C80.9,39.2,80.6,39.9,80.1,40.5z"/>
<path id="XMLID_2_" class="st0" d="M58,35.4l-8-0.7l-3-7.5c-0.7-1.7-2.3-2.8-4.1-2.8c-1.8,0-3.4,1.1-4.1,2.7l-3.1,7.5L27.7,35
	c-1.8,0.1-3.3,1.3-3.9,3c-0.6,1.7-0.1,3.6,1.3,4.8l6.1,5.3l-2,7.9c-0.3,1.3-0.1,2.7,0.8,3.8c0.8,1.1,2.1,1.7,3.5,1.7
	c0.8,0,1.6-0.2,2.3-0.6l6.9-4.2l6.8,4.4c0.7,0.5,1.5,0.7,2.4,0.7c1.3,0,2.6-0.6,3.5-1.7c0.8-1.1,1.1-2.4,0.8-3.7l-1.8-7.9l6.2-5.1
	c1.4-1.1,1.9-3,1.4-4.7C61.4,36.7,59.8,35.5,58,35.4z M50,45.6c-0.7,0.6-1,1.5-0.8,2.4l2,8.4l-7.3-4.7c-0.4-0.2-0.8-0.4-1.3-0.4
	c-0.4,0-0.9,0.1-1.2,0.3L34,56.2l2.2-8.4c0.2-0.9-0.1-1.8-0.7-2.4l-6.5-5.6l8.6-0.5c0.9-0.1,1.7-0.6,2.1-1.5l3.3-8l3.2,8
	c0.3,0.9,1.1,1.4,2,1.5l8.6,0.7L50,45.6z"/>
</svg>
