<?xml version="1.0" encoding="utf-8"?>
<!-- Generator: Adobe Illustrator 19.0.0, SVG Export Plug-In . SVG Version: 6.00 Build 0)  -->
<svg version="1.1" id="Layer_1" xmlns="http://www.w3.org/2000/svg" xmlns:xlink="http://www.w3.org/1999/xlink" x="0px" y="0px"
	 viewBox="0 0 20 20" style="enable-background:new 0 0 20 20;" xml:space="preserve">
<style type="text/css">
	.st0{fill:#202020;}
</style>
<path id="XMLID_6_" class="st0" d="M0.7,19.5h18.6c0.4,0,0.7-0.3,0.7-0.7V2.6c0-0.4-0.3-0.7-0.7-0.7h-3.5V1.2c0-0.4-0.3-0.7-0.7-0.7
	c-0.4,0-0.7,0.3-0.7,0.7v0.6H5.7V1.2c0-0.4-0.3-0.7-0.7-0.7c-0.4,0-0.7,0.3-0.7,0.7v0.6H0.7C0.3,1.8,0,2.2,0,2.6v16.2
	C0,19.2,0.3,19.5,0.7,19.5z M1.4,3.3h2.9v0.4c0,0.4,0.3,0.7,0.7,0.7c0.4,0,0.7-0.3,0.7-0.7V3.3h8.6v0.4c0,0.4,0.3,0.7,0.7,0.7
	c0.4,0,0.7-0.3,0.7-0.7V3.3h2.8v1.9H1.4V3.3z M1.4,6.6h17.2v11.4H1.4V6.6z"/>
<path id="XMLID_4_" class="st0" d="M15.1,10H4.9c-0.4,0-0.7,0.3-0.7,0.7c0,0.4,0.3,0.7,0.7,0.7h10.2c0.4,0,0.7-0.3,0.7-0.7
	C15.8,10.3,15.5,10,15.1,10z"/>
<path id="XMLID_2_" class="st0" d="M10,13.5H4.9c-0.4,0-0.7,0.3-0.7,0.7c0,0.4,0.3,0.7,0.7,0.7H10c0.4,0,0.7-0.3,0.7-0.7
	C10.7,13.8,10.4,13.5,10,13.5z"/>
</svg>
