<?xml version="1.0" encoding="utf-8"?>
<!-- Generator: Adobe Illustrator 19.0.0, SVG Export Plug-In . SVG Version: 6.00 Build 0)  -->
<svg version="1.1" id="Layer_1" xmlns="http://www.w3.org/2000/svg" xmlns:xlink="http://www.w3.org/1999/xlink" x="0px" y="0px"
	 viewBox="14 0 128 106" style="enable-background:new 14 0 128 106;" xml:space="preserve">
<style type="text/css">
	.st0{fill:#D44055;}
</style>
<path class="st0" d="M83.8,19.7V12c0-4.5-3.6-8.1-8.1-8.1h-23c-4.5,0-8.1,3.6-8.1,8.1v7.7H14V48c0,0,2.4,0.6,3.6,0.9V104h93.2V48.8
	c0.9-0.2,3.2-0.7,3.2-0.7V19.7H83.8z M48.7,12.1c0-2.3,1.9-4,4-4h23c2.3,0,4,1.9,4,4v7.7h-31V12.1z M18.5,24h26.2h39.2h25.7v20.9
	c-4.9,1.2-20.4,4.4-33.8,5.9v-5.4H52.9v5.5c-14.2-1.6-29.6-4.9-34.5-6L18.5,24L18.5,24z M71.2,49.3v13.6H57V49.3H71.2z M106.8,99.7
	H21.7V49.8c7.2,1.6,19.7,4.1,31.3,5.1v12.2h22.6h0.2V54.8c11.2-1.3,24-3.7,31.1-5.2L106.8,99.7L106.8,99.7z"/>
</svg>
