<?xml version="1.0" encoding="utf-8"?>
<!-- Generator: Adobe Illustrator 19.0.0, SVG Export Plug-In . SVG Version: 6.00 Build 0)  -->
<svg version="1.1" id="Layer_1" xmlns="http://www.w3.org/2000/svg" xmlns:xlink="http://www.w3.org/1999/xlink" x="0px" y="0px"
	 viewBox="0 0 50 41" style="enable-background:new 0 0 50 41;" xml:space="preserve">
<style type="text/css">
	.st0{fill:#D44055;}
</style>
<path id="XMLID_5_" class="st0" d="M40.9,6.3C36.6,2.6,31,0.5,25,0.5c-6,0-11.6,2.1-15.9,5.8c-4.3,3.8-6.6,8.8-6.6,14.2
	c0,4.4,1.6,8.6,4.6,12.1C6.5,34,5.5,35,4.4,35.8c-0.6,0.4-0.9,1.1-0.7,1.8c0.2,0.7,0.7,1.2,1.4,1.3c0.7,0.1,1.4,0.1,2.1,0.1
	c2.3,0,4.4-0.5,6.2-1.5c3.5,1.9,7.5,2.9,11.6,2.9c6,0,11.6-2.1,15.9-5.8c4.3-3.8,6.6-8.8,6.6-14.2C47.5,15.1,45.1,10.1,40.9,6.3z
	 M25,38.3c-3.9,0-7.8-1-11.1-2.9c-0.2-0.1-0.4-0.1-0.5-0.1c-0.2,0-0.4,0.1-0.6,0.2c-1.6,1-3.5,1.5-5.6,1.5c-0.2,0-0.3,0-0.5,0
	c1.2-1.1,2.1-2.4,2.7-4.1c0.1-0.4,0.1-0.8-0.2-1.1c-2.9-3.2-4.5-7-4.5-11.1c0-9.8,9.1-17.8,20.3-17.8s20.3,8,20.3,17.8
	C45.3,30.3,36.2,38.3,25,38.3z"/>
<path id="XMLID_2_" class="st0" d="M29.1,12.1c-1.5,0-3,0.5-4.1,1.5c-1.2-1-2.6-1.5-4.1-1.5c-1.7,0-3.4,0.7-4.6,1.9
	c-1.2,1.2-1.9,2.9-1.9,4.6c0,1.7,0.7,3.4,1.9,4.6l7.3,7.4c0.4,0.4,0.9,0.6,1.4,0.6c0.5,0,1-0.2,1.4-0.6l7.3-7.4
	c1.2-1.2,1.9-2.9,1.9-4.6c0-1.8-0.7-3.4-1.9-4.6C32.5,12.8,30.9,12.1,29.1,12.1z M32.1,21.7L25,28.9l-7.1-7.2
	c-0.8-0.8-1.3-1.9-1.3-3s0.4-2.2,1.3-3c0.8-0.8,1.9-1.3,3-1.3c1.1,0,2.2,0.4,3,1.3l0.3,0.3c0.2,0.2,0.5,0.3,0.8,0.3
	c0.3,0,0.6-0.1,0.8-0.3l0.3-0.3c0.8-0.8,1.9-1.3,3-1.3c1.1,0,2.2,0.4,3,1.3c0.8,0.8,1.3,1.9,1.3,3C33.4,19.8,32.9,20.9,32.1,21.7z"
	/>
</svg>
