<?xml version="1.0" encoding="utf-8"?>
<!-- Generator: Adobe Illustrator 19.0.0, SVG Export Plug-In . SVG Version: 6.00 Build 0)  -->
<svg version="1.1" id="Layer_1" xmlns="http://www.w3.org/2000/svg" xmlns:xlink="http://www.w3.org/1999/xlink" x="0px" y="0px"
	 viewBox="0 0 26 19" style="enable-background:new 0 0 26 19;" xml:space="preserve">
<style type="text/css">
	.st0{fill:none;}
</style>
<path class="st0" d="M19.1,9.2c1.4,0.1,2.6-0.8,2.7-2C22,5.9,21,4.7,19.7,4.6c-1.4-0.1-2.6,0.8-2.7,2C16.8,7.9,17.7,9.1,19.1,9.2z"
	/>
<path class="st0" d="M8.3,7.3L12,6.6l0.8,1.2l-2.9,2.6c0.4,0.1,0.9,0.3,1.3,0.5c0.2,0.1,0.4,0.2,0.5,0.3c0.3,0.2,0.5,0.3,0.8,0.4
	c0.2,0.1,0.5,0.1,0.5,0.1c0.4,0,0.7-0.1,1-0.3c0.8-0.5,1.9-1.1,3.2-1.1c0.1,0,0.2,0,0.3,0c0.4,0,0.8,0,1.2,0.1c-0.3-0.4-5-5.8-5-5.8
	l-0.1-0.1c-0.3-0.3-0.8-0.5-1.3-0.3L7.8,5.6c-0.4,0.1-0.7,0.6-0.6,1C7.3,7.1,7.8,7.4,8.3,7.3z"/>
<path class="st0" d="M24.5,12.7c-0.6,0.3-1.1,0.4-1.6,0.4c-0.2,0-0.4,0-0.6-0.1c-0.7-0.1-1.3-0.5-1.8-0.9c-0.3-0.2-0.6-0.5-1-0.6
	C19,11.1,18.2,11,17.5,11c-0.1,0-0.2,0-0.2,0c-1.1,0-2,0.5-2.8,1c-0.5,0.3-1,0.4-1.5,0.4c-0.2,0-0.5,0-0.7-0.1
	c-0.4-0.1-0.7-0.3-1-0.5c-0.2-0.1-0.3-0.2-0.5-0.3C10.1,11.2,9.3,11,8.6,11h0c-1.1,0-2.1,0.3-2.9,0.9c-1.1,0.8-1.8,1.1-2,1.1
	c0,0-0.2,0-0.5,0c-0.7,0-1.3-0.2-1.9-0.5c-0.4-0.2-0.8-0.3-1.2-0.3c0.1,0,0.1,0.1,0.2,0.1c0.3,0.2,0.6,0.4,0.8,0.7
	c0.1,0.1,0.2,0.2,0.4,0.4c0.5,0.4,1.5,1,2.7,1c0.6,0,1.2-0.1,1.7-0.4C6,14,6.2,13.9,6.4,13.8c0.3-0.2,0.6-0.3,0.9-0.4
	c0.4-0.1,1-0.1,1-0.1c0.6,0,1.1,0.3,1.5,0.6c1.1,0.8,2.1,1.1,3.2,1.1l0.1,0c0.8,0,1.4-0.1,2.1-0.4c0.3-0.1,0.6-0.3,0.8-0.5
	c0.5-0.4,1.1-0.8,1.8-0.8c0,0,0.1,0,0.1,0c0.4,0,1,0.1,1.6,0.4c0.7,0.4,1.6,0.7,2.5,0.7c0.1,0,0.3,0,0.4,0c0.9-0.1,1.7-0.4,2.3-0.9
	c0.1-0.1,0.3-0.2,0.4-0.4c0.3-0.3,0.6-0.5,0.9-0.8c0,0,0.1,0,0.1,0C25.6,12.3,25.1,12.5,24.5,12.7z"/>
</svg>
