<?xml version="1.0" encoding="utf-8"?>
<!-- Generator: Adobe Illustrator 19.0.0, SVG Export Plug-In . SVG Version: 6.00 Build 0)  -->
<svg version="1.1" id="Layer_1" xmlns="http://www.w3.org/2000/svg" xmlns:xlink="http://www.w3.org/1999/xlink" x="0px" y="0px"
	 viewBox="0 0 19 22" style="enable-background:new 0 0 19 22;" xml:space="preserve">
<style type="text/css">
	.st0{fill:none;}
</style>
<path id="XMLID_2_" class="st0" d="M13.4,0.1c1.3,0.3,3.7,2.3,4.5,3.2c0.9,1.1,1.2,2.6,1.2,4c-0.1,1.8-0.8,3.5-2.1,4.7
	c-3.3,3-5.7,6.9-9.2,9.9c-1-1.5-2-2.9-3-4.3c2.6-3,5.2-5.9,7.8-8.8c-0.1-0.1-1.2-1.2-1.3-1.3C11,7.8,10.7,8,10.5,8.2
	c-1.3,1.5-2.6,3-3.9,4.5c-1,1.1-2.1,1.8-3.6,1.4c-1.6-0.4-2.4-1.6-2.8-3.1c-0.6-2.5,0.1-4.6,1.9-6.4c1.4-1.4,2-2.5,3.6-1.4
	C4.5,4.9,3.4,6.5,2.2,8.1c0.1,0.1,1.2,1.1,1.3,1.2C4.3,8.2,5.2,7.1,5.9,6c0.8-1.3,1.8-2.5,3-3.4c0.6-0.5,1.3-0.8,2-1.2
	c0.9-0.4,1.8-0.3,2.7-0.3C13.9,1,13.1,0.1,13.4,0.1z"/>
</svg>
