<?xml version="1.0" encoding="utf-8"?>
<!-- Generator: Adobe Illustrator 19.0.0, SVG Export Plug-In . SVG Version: 6.00 Build 0)  -->
<svg version="1.1" id="Layer_1" xmlns="http://www.w3.org/2000/svg" xmlns:xlink="http://www.w3.org/1999/xlink" x="0px" y="0px"
	 viewBox="0 0 18 17" style="enable-background:new 0 0 18 17;" xml:space="preserve">
<style type="text/css">
	.st0{fill:#B2C1CB;}
</style>
<path id="XMLID_2_" class="st0" d="M13.5,6.2V3.9c0-1.1-0.8-2.2-2.2-2.9c-1.2-0.6-2.9-1-4.6-1C5,0,3.4,0.4,2.2,1
	C0.8,1.7,0,2.7,0,3.9V7V10v3.1c0,1.1,0.8,2.2,2.2,2.9c1.2,0.6,2.9,1,4.6,1c1.3,0,2.6-0.2,3.6-0.6c0.7,0.4,1.5,0.6,2.4,0.6
	c2.9,0,5.3-2.4,5.3-5.4C18,8.9,16,6.6,13.5,6.2z M1.5,9.4c0.2,0.1,0.4,0.3,0.7,0.4c1.2,0.6,2.9,1,4.6,1c0.3,0,0.5,0,0.8,0
	c0,0.3-0.1,0.5-0.1,0.8c0,0.3,0,0.5,0,0.7c-0.3,0-0.5,0-0.8,0c-3,0-5.2-1.2-5.2-2.3V9.4z M8,9.2C7.6,9.2,7.2,9.3,6.7,9.3
	C3.7,9.3,1.5,8,1.5,7V6.3c0.2,0.1,0.4,0.3,0.7,0.4c1.2,0.6,2.9,1,4.6,1c0.9,0,1.8-0.1,2.6-0.3C8.8,7.9,8.4,8.5,8,9.2z M6.7,1.5
	c3,0,5.2,1.2,5.2,2.3C12,5,9.8,6.2,6.7,6.2S1.5,5,1.5,3.9C1.5,2.8,3.7,1.5,6.7,1.5z M1.5,13.1v-0.6c0.2,0.1,0.4,0.3,0.7,0.4
	c1.2,0.6,2.9,1,4.6,1c0.4,0,0.8,0,1.2-0.1c0.2,0.5,0.5,1,0.9,1.4c-0.7,0.1-1.4,0.2-2.1,0.2C3.7,15.5,1.5,14.2,1.5,13.1z M12.7,15.5
	c-2.1,0-3.8-1.7-3.8-3.9c0-2.1,1.7-3.9,3.7-3.9c0,0,0,0,0,0c0,0,0,0,0,0c2.1,0,3.7,1.7,3.7,3.9C16.5,13.7,14.8,15.5,12.7,15.5z"/>
</svg>
