<?xml version="1.0" encoding="utf-8"?>
<!-- Generator: Adobe Illustrator 19.0.0, SVG Export Plug-In . SVG Version: 6.00 Build 0)  -->
<svg version="1.1" id="Layer_1" xmlns="http://www.w3.org/2000/svg" xmlns:xlink="http://www.w3.org/1999/xlink" x="0px" y="0px"
	 viewBox="0 0 18 18" style="enable-background:new 0 0 18 18;" xml:space="preserve">
<style type="text/css">
	.st0{fill:#D13045;}
</style>
<path id="XMLID_2_" class="st0" d="M9,11.7c2.6,0,4.7-2.6,4.7-5.8c0-3.2-2.1-5.8-4.7-5.8c-1.3,0-2.5,0.6-3.3,1.7
	c-0.8,1.1-1.3,2.5-1.3,4C4.3,9.1,6.4,11.7,9,11.7z M9,1.4c1.9,0,3.4,2,3.4,4.5c0,2.5-1.5,4.5-3.4,4.5c-1.9,0-3.4-2-3.4-4.5
	C5.6,3.4,7.1,1.4,9,1.4z M12.9,11c-0.3,0-0.6,0.3-0.6,0.6c0,0.4,0.3,0.6,0.6,0.6c2.1,0,3.8,1.8,3.8,3.9c0,0.3-0.2,0.5-0.5,0.5H1.7
	c-0.3,0-0.5-0.2-0.5-0.5c0-2.2,1.7-3.9,3.8-3.9c0.3,0,0.6-0.3,0.6-0.6c0-0.4-0.3-0.6-0.6-0.6C2.3,11,0,13.4,0,16.2
	c0,1,0.8,1.8,1.7,1.8h14.5c1,0,1.7-0.8,1.7-1.8C18,13.4,15.7,11,12.9,11z"/>
<path id="XMLID_6_" class="st0" d="M9,11.6c2.6,0,4.7-2.6,4.7-5.8C13.7,2.6,11.6,0,9,0C7.7,0,6.5,0.6,5.7,1.8
	c-0.8,1.1-1.3,2.5-1.3,4C4.3,9,6.4,11.6,9,11.6z M9,1.3c1.9,0,3.4,2,3.4,4.5c0,2.5-1.5,4.5-3.4,4.5c-1.9,0-3.4-2-3.4-4.5
	C5.6,3.3,7.1,1.3,9,1.3z M12.9,10.9c-0.3,0-0.6,0.3-0.6,0.6c0,0.4,0.3,0.6,0.6,0.6c2.1,0,3.8,1.8,3.8,3.9c0,0.3-0.2,0.5-0.5,0.5H1.7
	c-0.3,0-0.5-0.2-0.5-0.5c0-2.2,1.7-3.9,3.8-3.9c0.3,0,0.6-0.3,0.6-0.6c0-0.4-0.3-0.6-0.6-0.6c-2.8,0-5.1,2.3-5.1,5.2
	c0,1,0.8,1.8,1.7,1.8h14.5c1,0,1.7-0.8,1.7-1.8C18,13.3,15.7,10.9,12.9,10.9z"/>
</svg>
