<?xml version="1.0" encoding="utf-8"?>
<!-- Generator: Adobe Illustrator 19.0.0, SVG Export Plug-In . SVG Version: 6.00 Build 0)  -->
<svg version="1.1" id="Layer_1" xmlns="http://www.w3.org/2000/svg" xmlns:xlink="http://www.w3.org/1999/xlink" x="0px" y="0px"
	 viewBox="0 0 87 95" style="enable-background:new 0 0 87 95;" xml:space="preserve">
<style type="text/css">
	.st0{fill:#D44055;}
</style>
<path id="XMLID_4_" class="st0" d="M86.1,23.9C84.9,10,75.1,0,62.8,0c-8.2,0-15.7,4.4-19.9,11.4C38.7,4.3,31.5,0,23.5,0
	C11.2,0,1.4,10,0.1,23.9c-0.1,0.6-0.5,3.8,0.7,9.1c1.8,7.6,5.9,14.4,11.9,19.9L42.9,80l30.6-27.2c6-5.4,10.2-12.3,11.9-19.9
	C86.6,27.7,86.2,24.5,86.1,23.9z M82.2,32.2c-1.6,6.9-5.4,13.2-10.9,18.2L42.9,75.5L15.1,50.3c-5.5-5-9.3-11.3-10.9-18.2
	c-1.2-5-0.7-7.8-0.7-7.8l0-0.2C4.5,12.1,13,3.3,23.5,3.3c7.8,0,14.6,4.8,17.9,12.4l1.5,3.6l1.5-3.6C47.6,8.2,54.8,3.3,62.8,3.3
	c10.5,0,19,8.8,20.1,21.1C82.9,24.4,83.3,27.2,82.2,32.2z"/>
<path id="XMLID_2_" class="st0" d="M26.5,10.1c-9.1,0-16.6,7.4-16.6,16.5c0,0.9,0.7,1.7,1.7,1.7c0.9,0,1.7-0.7,1.7-1.7
	c0-7.3,6-13.2,13.3-13.2c0.9,0,1.7-0.7,1.7-1.7C28.2,10.8,27.5,10.1,26.5,10.1z"/>
</svg>
