<?xml version="1.0" encoding="utf-8"?>
<!-- Generator: Adobe Illustrator 19.0.0, SVG Export Plug-In . SVG Version: 6.00 Build 0)  -->
<svg version="1.1" id="Layer_1" xmlns="http://www.w3.org/2000/svg" xmlns:xlink="http://www.w3.org/1999/xlink" x="0px" y="0px"
	 viewBox="0 0 50 41" style="enable-background:new 0 0 50 41;" xml:space="preserve">
<style type="text/css">
	.st0{fill:#D44055;}
</style>
<path id="XMLID_14_" class="st0" d="M22.9,40c-0.3,0-0.5-0.1-0.7-0.3L6.2,24H1c-0.5,0-1-0.4-1-0.9c0-0.5,0.4-0.9,1-0.9h5.7
	c0.3,0,0.5,0.1,0.7,0.3l16,15.8h20.1c0.5,0,0.8-0.2,0.9-0.4c0.1-0.1,0.4-0.4,0.4-0.9c0-0.7-0.7-1.2-1.4-1.3l-17.8-2.4
	c-0.2,0-0.4-0.1-0.5-0.3l-7.1-7l0,0l0,0l0-0.1c-1.1-1.2-1.1-3.1,0.1-4.2c0.6-0.6,1.4-0.9,2.2-0.9c0.8,0,1.6,0.3,2.2,0.9l5.1,5.1
	c0.3,0.3,0.7,0.4,1.1,0.4c0.4,0,0.8-0.2,1.1-0.4c0.6-0.6,0.6-1.5,0-2.1L15.6,10.9H1c-0.5,0-1-0.4-1-0.9C0,9.4,0.4,9,1,9h15
	c0.3,0,0.5,0.1,0.7,0.3l14.1,13.9c1.3,1.3,1.3,3.4,0,4.7c-0.6,0.6-1.5,1-2.4,1c-0.9,0-1.7-0.3-2.3-0.9l-0.1-0.1l-0.1-0.2h0l-4.9-4.8
	l-0.1-0.2l-0.1,0c-0.2-0.2-0.5-0.2-0.6-0.2c-0.2,0-0.5,0-0.8,0.3c-0.4,0.4-0.5,1.1-0.1,1.6l0,0l7,6.9l17.5,2.4
	c1.8,0.3,3.1,1.6,3.1,3.1c0,0.8-0.3,1.6-0.9,2.2C45,39.7,44.2,40,43.4,40H22.9z"/>
<path id="XMLID_11_" class="st0" d="M42.6,27.2c-4.1,0-7.4-3.3-7.4-7.3c0-4,3.3-7.3,7.4-7.3c4.1,0,7.4,3.3,7.4,7.3
	C50,23.9,46.7,27.2,42.6,27.2z M42.6,14.6c-3,0-5.4,2.4-5.4,5.3s2.4,5.3,5.4,5.3c3,0,5.4-2.4,5.4-5.3S45.6,14.6,42.6,14.6z"/>
<path id="XMLID_8_" class="st0" d="M42.6,23.5c-2,0-3.6-1.6-3.6-3.6s1.6-3.6,3.6-3.6c2,0,3.6,1.6,3.6,3.6S44.6,23.5,42.6,23.5z
	 M42.6,17.3c-1.5,0-2.6,1.2-2.6,2.6c0,1.4,1.2,2.6,2.6,2.6c1.5,0,2.6-1.2,2.6-2.6C45.3,18.5,44.1,17.3,42.6,17.3z"/>
<path id="XMLID_5_" class="st0" d="M35.2,12.8c-3.3,0-6-2.6-6-5.9c0-3.2,2.7-5.9,6-5.9c3.3,0,6,2.6,6,5.9
	C41.2,10.1,38.5,12.8,35.2,12.8z M35.2,2.6c-2.4,0-4.4,1.9-4.4,4.3s2,4.3,4.4,4.3c2.4,0,4.4-1.9,4.4-4.3S37.7,2.6,35.2,2.6z"/>
<path id="XMLID_2_" class="st0" d="M35.2,9.8c-1.6,0-2.9-1.3-2.9-2.9c0-1.6,1.3-2.9,2.9-2.9c1.6,0,2.9,1.3,2.9,2.9
	C38.2,8.5,36.9,9.8,35.2,9.8z M35.2,4.8c-1.2,0-2.1,0.9-2.1,2.1s1,2.1,2.1,2.1c1.2,0,2.1-0.9,2.1-2.1S36.4,4.8,35.2,4.8z"/>
</svg>
