<?xml version="1.0" encoding="utf-8"?>
<!-- Generator: Adobe Illustrator 19.0.0, SVG Export Plug-In . SVG Version: 6.00 Build 0)  -->
<svg version="1.1" id="Layer_1" xmlns="http://www.w3.org/2000/svg" xmlns:xlink="http://www.w3.org/1999/xlink" x="0px" y="0px"
	 viewBox="0 0 16 20" style="enable-background:new 0 0 16 20;" xml:space="preserve">
<style type="text/css">
	.st0{fill:#D44055;}
</style>
<path id="XMLID_2_" class="st0" d="M12.5,12.4h-1.6v-1.6c0.3-0.4,0.6-0.9,0.8-1.3c0.5-0.1,1-0.6,1.3-1.4c0.3-0.8,0.2-1.5-0.2-1.9
	c0.4-0.8,0.4-1.8-0.1-2.9C12,1.7,10.3,0,8,0C6,0,4.3,1,3.4,2.7C2.8,3.8,2.8,5.1,3.3,6.1C2.8,6.5,2.7,7.2,3,8.1
	c0.3,0.8,0.8,1.3,1.3,1.4c0.2,0.5,0.6,1,0.9,1.4v1.5H3.6C1.6,12.4,0,14,0,16v1.8c0,0.2,0.1,0.4,0.3,0.5C3.1,19.6,5.8,20,8.1,20
	c1.2,0,2.2-0.1,3.1-0.3c2.8-0.5,4.5-1.4,4.6-1.5c0.2-0.1,0.2-0.3,0.2-0.5V16C16,14,14.4,12.4,12.5,12.4z M6.2,12.9v-1
	c0.5,0.4,1.1,0.6,1.8,0.6c0.7,0,1.3-0.3,1.8-0.7v1.1c0,0.2,0.1,0.3,0.2,0.4c-0.2,0.9-1,1.6-1.9,1.6c-1,0-1.8-0.6-2-1.6
	C6.2,13.2,6.2,13,6.2,12.9z M4.3,3.2C5,1.9,6.5,1,8,1c1.8,0,3.2,1.3,3.7,2.7c0.3,0.8,0.4,1.5,0.1,2c-1.8-1.7-3.6-2.2-3.7-2.2
	C8,3.4,7.8,3.5,7.7,3.6C7.5,3.8,7.5,4,7.6,4.2c0.3,0.6,0.6,1,0.7,1.4C7,5.1,6.3,3.7,6.3,3.7C6.1,3.5,5.9,3.4,5.6,3.4
	C5.4,3.5,5.3,3.8,5.3,4c0,0.2-0.1,0.7-1,1.7C3.9,4.9,3.9,4,4.3,3.2z M12.1,7c0,0.1,0,0.4-0.1,0.7c-0.1,0.4-0.3,0.6-0.4,0.7
	c-0.1,0-0.2,0-0.3,0c-0.1,0-0.2,0.1-0.3,0.3C10.3,10,9.3,11.4,8,11.4c-1.2,0-2.3-1.5-2.9-2.7C5.1,8.5,4.9,8.4,4.8,8.4
	c-0.1,0-0.1,0-0.2,0c-0.1,0-0.1,0-0.2,0C4.4,8.3,4.2,8.1,4,7.7C3.9,7.4,3.9,7.2,3.9,7c0.3,0,0.5-0.1,0.6-0.2C5.3,6.2,5.7,5.6,6,5.1
	c0.6,0.7,1.7,1.6,3.3,1.6c0.2,0,0.3-0.1,0.4-0.2c0.1-0.1,0.1-0.3,0.1-0.5c0,0-0.1-0.4-0.5-1c0.7,0.4,1.5,1,2.3,1.8
	C11.6,7,11.8,7,11.9,7L12.1,7L12.1,7z M1,16c0-1.4,1.2-2.6,2.6-2.6h0.5l1.1,5.3c-1.3-0.2-2.7-0.6-4.1-1.2V16z M6.3,18.9l-1-4.9
	c0.4,1.1,1.5,1.9,2.8,1.9c1.1,0,2-0.6,2.6-1.4l-0.9,4.4C8.7,19,7.6,19,6.3,18.9z M10.9,18.7l1.1-5.3h0.5c1.4,0,2.5,1.2,2.5,2.6v1.5
	C14.4,17.7,12.9,18.4,10.9,18.7z"/>
</svg>
