<?xml version="1.0" encoding="utf-8"?>
<!-- Generator: Adobe Illustrator 19.0.0, SVG Export Plug-In . SVG Version: 6.00 Build 0)  -->
<svg version="1.1" id="Layer_1" xmlns="http://www.w3.org/2000/svg" xmlns:xlink="http://www.w3.org/1999/xlink" x="0px" y="0px"
	 viewBox="0 0 26 19" style="enable-background:new 0 0 26 19;" xml:space="preserve">
<style type="text/css">
	.st0{fill:#939599;}
</style>
<path class="st0" d="M17.2,3.1l-2.6-0.6l-1.9,2.4l-1.9-2.4L8.3,3.1L4.7,6.2l2,3.1L8,8.7v8.9h9.4V8.7l1.3,0.6l2-3.1L17.2,3.1z
	 M7.1,8.1L6,6.4L8.7,4l1.7-0.4l5.5,7H9V7.2L7.1,8.1z M9,16.6v-5.1h2.2v4h1v-4h1v2.4h1v-2.4h2.2v5.1H9z M18.3,8.1l-1.9-0.9v2.4
	l-3.1-4L15,3.6L16.7,4l2.8,2.4L18.3,8.1z"/>
</svg>
