<?xml version="1.0" encoding="utf-8"?>
<!-- Generator: Adobe Illustrator 19.0.0, SVG Export Plug-In . SVG Version: 6.00 Build 0)  -->
<svg version="1.1" id="Layer_1" xmlns="http://www.w3.org/2000/svg" xmlns:xlink="http://www.w3.org/1999/xlink" x="0px" y="0px"
	 viewBox="0 0 26 19" style="enable-background:new 0 0 26 19;" xml:space="preserve">
<style type="text/css">
	.st0{fill:#939599;}
</style>
<path class="st0" d="M19.1,3.4C18.2,2.5,16.9,2,15.6,2s-2.5,0.5-3.5,1.4l-1.3,1.2C9.9,5.6,9.4,6.8,9.4,8c0,0.2,0,0.4,0,0.6v3.4
	l-1.6,1.6c-0.3-0.1-0.7,0-1,0.3l-2.4,2.4c-0.4,0.4-0.4,1,0,1.4C4.7,17.9,4.9,18,5.2,18c0.3,0,0.5-0.1,0.7-0.3l2.4-2.4
	c0.3-0.3,0.4-0.6,0.3-1l1.6-1.6h3.5c0.2,0,0.4,0,0.7,0h0c1.3,0,2.5-0.5,3.5-1.4l1.3-1.2C21,8.3,21,5.3,19.1,3.4z M19.1,8.5l-1.3-1.3
	l1.6-1.5C19.6,6.6,19.5,7.6,19.1,8.5z M19,5l-1.8,1.7l-1.6-1.6l1.8-1.7c0.3,0.2,0.6,0.4,0.9,0.7C18.6,4.4,18.9,4.7,19,5z M11.6,10.7
	c-0.3-0.3-0.5-0.6-0.7-0.9l1.8-1.7l1.6,1.6l-1.8,1.7C12.2,11.2,11.9,11,11.6,10.7z M10.5,8.6C10.5,8.6,10.5,8.6,10.5,8.6
	c0-0.2,0-0.4,0-0.6c0-0.6,0.1-1.2,0.4-1.7l1.3,1.3l-1.6,1.5C10.6,9,10.5,8.8,10.5,8.6z M13.2,7.6l2-2l1.6,1.6l-2,2L13.2,7.6z
	 M16.8,3.2l-1.6,1.5l-1.3-1.3C14.4,3.1,15,3,15.6,3C16,3,16.4,3.1,16.8,3.2z M12.9,4.1C13,4,13.1,3.9,13.3,3.8l1.4,1.4l-2,2
	l-1.4-1.4c0.1-0.1,0.2-0.3,0.3-0.4L12.9,4.1z M10.5,11.8V11c0.1,0.1,0.2,0.3,0.4,0.4c0.1,0.1,0.3,0.2,0.4,0.4H10.5z M14.3,11.8
	c-0.2,0-0.4,0-0.6,0c0,0,0,0,0,0c-0.2,0-0.4-0.1-0.6-0.1l1.6-1.5l1.3,1.3C15.6,11.7,15,11.8,14.3,11.8L14.3,11.8z M17.1,10.7
	c-0.1,0.1-0.3,0.2-0.4,0.3l-1.4-1.4l2-2l1.4,1.4c-0.1,0.1-0.2,0.3-0.3,0.4L17.1,10.7z"/>
</svg>
