<?xml version="1.0" encoding="utf-8"?>
<!-- Generator: Adobe Illustrator 19.0.0, SVG Export Plug-In . SVG Version: 6.00 Build 0)  -->
<svg version="1.1" id="Layer_1" xmlns="http://www.w3.org/2000/svg" xmlns:xlink="http://www.w3.org/1999/xlink" x="0px" y="0px"
	 viewBox="0 0 26 19" style="enable-background:new 0 0 26 19;" xml:space="preserve">
<style type="text/css">
	.st0{fill:none;}
</style>
<path class="st0" d="M19.8,6.8c0.9,0,1.7,0.7,1.7,1.6c0,0.9-0.8,1.6-1.7,1.6s-1.7-0.7-1.7-1.6C18.1,7.5,18.8,6.8,19.8,6.8z"/>
<path class="st0" d="M18.2,9.9C18.2,9.8,18.2,9.8,18.2,9.9l-2.4-4.5c-0.2-0.4-0.7-0.6-1.2-0.4c-0.4,0.2-0.6,0.7-0.4,1.1l1.2,2.3
	c-1.3,0-2.5,0-3.8,0c-0.2,0-0.4,0-0.5,0.1C9.8,6.8,8.3,5.2,6.8,3.7C5.9,2.8,4.5,4.1,5.4,5c1.7,1.6,3.2,3.3,4.6,5.1
	c0,0,0.1,0.1,0.1,0.1c0,0.1,0,0.2,0.1,0.3c0,0,0,0.1,0,0.1c0,2,0,4,0,6c0,1.2,1.9,1.2,1.9,0c0-1.7,0-3.4,0-5.1c1.5,0,2.9,0,4.4,0
	c0.2,0,0.4,0,0.6-0.1l0.5,1l-0.5-0.1c-0.5-0.1-0.9,0.1-1.1,0.6c-0.1,0.4,0.1,0.9,0.6,1l2.3,0.7c0.1,0,0.2,0,0.3,0
	c0.2,0,0.5-0.1,0.7-0.3c0.2-0.2,0.3-0.6,0.1-0.9L18.2,9.9z"/>
</svg>
