<?xml version="1.0" encoding="utf-8"?>
<!-- Generator: Adobe Illustrator 19.0.0, SVG Export Plug-In . SVG Version: 6.00 Build 0)  -->
<svg version="1.1" id="Layer_1" xmlns="http://www.w3.org/2000/svg" xmlns:xlink="http://www.w3.org/1999/xlink" x="0px" y="0px"
	 viewBox="0 0 50 41" style="enable-background:new 0 0 50 41;" xml:space="preserve">
<style type="text/css">
	.st0{fill:#D44055;}
</style>
<path id="XMLID_8_" class="st0" d="M24.4,0C17.2,0,9.9,1.8,9.9,5.3v6.6c0,3.5,7.3,5.3,14.5,5.3s14.5-1.8,14.5-5.3V5.3
	C38.9,1.8,31.6,0,24.4,0z M24.4,1.7c7.8,0,12.8,2.1,12.8,3.6c0,1.5-5,3.6-12.8,3.6S11.6,6.8,11.6,5.3C11.6,3.8,16.6,1.7,24.4,1.7z
	 M24.4,15.5c-7.8,0-12.8-2.1-12.8-3.6V8c2.6,1.8,7.7,2.7,12.8,2.7S34.6,9.7,37.2,8v4C37.2,13.4,32.2,15.5,24.4,15.5z"/>
<path id="XMLID_5_" class="st0" d="M24.4,20.8c-7.8,0-12.8-2.1-12.8-3.6H9.9v6.6c0,3.5,7.3,5.3,14.5,5.3s14.5-1.8,14.5-5.3v-6.6
	h-1.7C37.2,18.7,32.2,20.8,24.4,20.8z M37.2,23.8c0,1.5-5,3.6-12.8,3.6s-12.8-2.1-12.8-3.6v-4c5.1,3.6,20.5,3.6,25.6,0V23.8z"/>
<path id="XMLID_2_" class="st0" d="M24.4,32.6c-7.8,0-12.8-2.1-12.8-3.6H9.9v6.6c0,3.5,7.3,5.3,14.5,5.3s14.5-1.8,14.5-5.3v-6.6
	h-1.7C37.2,30.5,32.2,32.6,24.4,32.6z M37.2,35.7c0,1.5-5,3.6-12.8,3.6s-12.8-2.1-12.8-3.6v-4c5.1,3.6,20.5,3.6,25.6,0V35.7z"/>
</svg>
