<?xml version="1.0" encoding="utf-8"?>
<!-- Generator: Adobe Illustrator 19.0.0, SVG Export Plug-In . SVG Version: 6.00 Build 0)  -->
<svg version="1.1" id="Layer_1" xmlns="http://www.w3.org/2000/svg" xmlns:xlink="http://www.w3.org/1999/xlink" x="0px" y="0px"
	 viewBox="0 0 128 106" style="enable-background:new 0 0 128 106;" xml:space="preserve">
<style type="text/css">
	.st0{fill:#D44055;}
</style>
<path class="st0" d="M84.5,76.6c-0.1,0-0.2,0-0.2,0l-15.6-2.3c-2.5-1.6-2.8-5.7-2.8-10.1c4.9-5.1,8-12.3,8-20.2v-0.6
	c3.8-3.4,6-8.2,6-13.4V18c0-9.9-8-17.9-17.9-17.9H36c-3.7,0-6.9,2.6-7.7,6.1C21.4,7,16.1,12.9,16.1,20v10c0,5.2,2.2,10,6,13.4V44
	c0,7.9,3.1,15.1,8,20.2c0,4.4-0.2,8.5-2.8,10.1l-15.6,2.3c-0.1,0-0.2,0-0.2,0c-3.4,1-6.4,3.1-8.5,6.2c-1.9,2.8-3,6.2-3,9.5v7.8
	c0,3.2,2.9,5.9,6.4,5.9h83.1c3.5,0,6.4-2.6,6.4-5.9v-7.8c0-3.3-1.1-6.7-3-9.5C90.9,79.7,88,77.6,84.5,76.6z M48,71.9
	c5.2,0,10.1-1.7,14.2-4.6c0.2,3.4,0.9,7.2,3.7,9.5c-1.5,7.7-9,13.4-17.9,13.4s-16.4-5.7-17.9-13.4c2.8-2.3,3.5-6.1,3.7-9.5
	C37.9,70.2,42.8,71.9,48,71.9z M25.8,42.6c0-0.1,0-0.2,0-0.3V31.9c0-3.4,2.8-6.1,6.1-6.1H66c1,0,1.9-0.8,1.9-1.9
	c0-1-0.8-1.9-1.9-1.9H32c-5.5,0-9.9,4.4-9.9,9.9v5.7c-1.5-2.3-2.3-4.9-2.3-7.7v-10c0-5.6,4.6-10.2,10.1-10.2c1,0,1.9-0.8,1.9-1.9
	c0-2.3,1.9-4.1,4.1-4.1H62c7.8,0,14.2,6.4,14.2,14.2v12c0,2.8-0.8,5.4-2.3,7.7v-7.7c0-1-0.8-1.9-1.9-1.9c-1,0-1.9,0.8-1.9,1.9v14
	c0,13.3-9.9,24.2-22.2,24.2c-12.2,0-22.2-10.9-22.2-24.2v-1.3H25.8z M92.2,100.1c0,1.1-1.2,2.1-2.7,2.1h-83c-1.5,0-2.7-1-2.7-2.1
	v-7.8c0-4.8,2.9-10.4,8.6-12.1l14.2-2.1c2.1,9.1,11,15.8,21.5,15.8s19.4-6.7,21.5-15.8l14.2,2.1c5.6,1.6,8.6,7.3,8.6,12.1v7.8H92.2z
	"/>
</svg>
