<?xml version="1.0" encoding="utf-8"?>
<!-- Generator: Adobe Illustrator 19.0.0, SVG Export Plug-In . SVG Version: 6.00 Build 0)  -->
<svg version="1.1" id="Слой_1" xmlns="http://www.w3.org/2000/svg" xmlns:xlink="http://www.w3.org/1999/xlink" x="0px" y="0px"
	 viewBox="-69 13.6 26.3 18.4" style="enable-background:new -69 13.6 26.3 18.4;" xml:space="preserve">
<style type="text/css">
	.st0{fill:#D44055;}
</style>
<g>
	<path class="st0" d="M-59.6,31.6c1.7,0,3.3-0.5,4.7-1.4c1.4-0.9,2.4-2,3.2-3.5l-1.4-0.7c-1.3,2.4-3.7,4-6.5,4c-4,0-7.2-3.2-7.2-7.2
		s3.2-7.2,7.2-7.2c2.7,0,5.3,1.6,6.5,4l1.4-0.7c-0.7-1.5-1.8-2.6-3.2-3.5c-1.4-0.9-3-1.4-4.7-1.4c-4.9,0-8.8,3.9-8.8,8.8
		S-64.4,31.6-59.6,31.6z"/>
	<polygon class="st0" points="-59.6,22 -59.6,23.6 -46.3,23.6 -48,25.3 -46.9,26.4 -43.3,22.8 -46.9,19.2 -48,20.3 -46.3,22 	"/>
</g>
</svg>
