<?xml version="1.0" encoding="utf-8"?>
<!-- Generator: Adobe Illustrator 19.0.0, SVG Export Plug-In . SVG Version: 6.00 Build 0)  -->
<svg version="1.1" id="Layer_1" xmlns="http://www.w3.org/2000/svg" xmlns:xlink="http://www.w3.org/1999/xlink" x="0px" y="0px"
	 viewBox="0 0 166 45" style="enable-background:new 0 0 166 45;" xml:space="preserve">
<style type="text/css">
	.st0{fill:#626F76;}
	.st1{fill:#BFC5C8;}
	.st2{fill:#EC1E43;}
	.st3{fill:#F5989E;}
	.st4{fill:#F1666A;}
</style>
<path id="XMLID_33_" class="st0" d="M8.1,16.8l-0.3,1.4c0,0.2-0.1,0.3-0.4,0.3h0h0c-0.3,0-0.6,0-1-0.1c-0.4,0-0.8,0-1.2,0
	c-0.3,0-0.5,0-0.7,0.1c-0.2,0.1-0.5,0.2-0.7,0.4c-0.2,0.2-0.4,0.4-0.5,0.8C3.2,20,3.1,20.4,3,20.9l-0.3,1.9
	c-0.1,0.3-0.1,0.6-0.1,0.9c0,0.6,0.1,1,0.4,1.3c0.3,0.2,0.6,0.3,1.1,0.3c0.4,0,0.8,0,1.2,0c0.4,0,0.7-0.1,1-0.1h0
	c0.2,0,0.3,0.1,0.3,0.2c0,0,0,0,0,0c0,0,0,0,0,0l-0.3,1.4c0,0.1-0.1,0.2-0.1,0.2c-0.1,0-0.2,0.1-0.3,0.1c-0.2,0-0.5,0.1-0.9,0.2
	c-0.4,0.1-0.9,0.1-1.4,0.1c-0.5,0-0.9-0.1-1.4-0.2c-0.4-0.1-0.8-0.4-1.2-0.7c-0.3-0.3-0.6-0.7-0.8-1.1C0.1,25,0,24.5,0,23.9
	c0-0.2,0-0.3,0-0.5c0-0.2,0-0.4,0.1-0.6l0.3-1.9c0.2-1,0.4-1.8,0.8-2.4c0.3-0.6,0.7-1.1,1.2-1.4c0.5-0.3,1-0.6,1.5-0.7
	c0.6-0.1,1.1-0.2,1.7-0.2c0.5,0,1,0,1.4,0.1c0.4,0.1,0.7,0.1,0.8,0.2c0.1,0,0.2,0.1,0.2,0.1C8.1,16.6,8.1,16.6,8.1,16.8L8.1,16.8
	L8.1,16.8z"/>
<path id="XMLID_32_" class="st0" d="M15.8,16.3c0.5,0,0.9,0.1,1.3,0.2c0.3,0.1,0.6,0.3,0.8,0.5c0.2,0.2,0.3,0.4,0.4,0.7
	c0.1,0.3,0.1,0.6,0.1,0.9c0,0.3,0,0.6-0.1,0.9L17,27.1c0,0.1-0.1,0.1-0.1,0.2c-0.1,0.1-0.1,0.1-0.2,0.1h-1.9c-0.1,0-0.2,0-0.2-0.1
	c0-0.1,0-0.1,0-0.2l1.4-7.8c0-0.1,0-0.2,0-0.3c0-0.1,0-0.2,0-0.2c0-0.1-0.1-0.1-0.2-0.2c-0.1,0-0.2-0.1-0.4-0.1H13
	c-0.2,0-0.3,0-0.4,0.1c-0.1,0-0.2,0.1-0.2,0.2c0,0.1-0.1,0.1-0.1,0.2c0,0.1,0,0.2-0.1,0.3l-1.4,7.8c0,0.1-0.1,0.1-0.1,0.2
	c0,0.1-0.1,0.1-0.2,0.1H8.5c-0.1,0-0.2,0-0.2-0.1c0-0.1,0-0.1,0-0.2l1.4-7.8c0.1-0.5,0.2-0.9,0.3-1.2c0.1-0.4,0.4-0.7,0.6-0.9
	c0.3-0.3,0.6-0.5,1.1-0.6c0.4-0.1,1-0.2,1.6-0.2H15.8z"/>
<path id="XMLID_29_" class="st0" d="M26.6,20c0-0.6-0.1-1-0.4-1.2c-0.2-0.2-0.6-0.4-1.1-0.4c-0.6,0-1.1,0.2-1.5,0.6
	c-0.4,0.4-0.6,1-0.8,2l-0.3,1.8c-0.1,0.4-0.1,0.7-0.1,1c0,0.6,0.1,1,0.4,1.2c0.2,0.2,0.6,0.3,1.1,0.3c0.6,0,1.1-0.2,1.5-0.6
	c0.4-0.4,0.6-1,0.8-2l0.3-1.8c0-0.2,0.1-0.4,0.1-0.5C26.6,20.3,26.6,20.1,26.6,20 M29.2,19.8c0,0.2,0,0.4,0,0.6c0,0.2,0,0.4-0.1,0.6
	l-0.3,1.8c-0.1,0.9-0.4,1.6-0.7,2.2c-0.3,0.6-0.7,1.1-1.1,1.5c-0.4,0.4-1,0.7-1.5,0.8c-0.6,0.2-1.2,0.3-1.9,0.3
	c-0.5,0-1-0.1-1.4-0.2c-0.4-0.1-0.8-0.4-1.2-0.7c-0.3-0.3-0.6-0.7-0.8-1.1c-0.2-0.5-0.3-1-0.3-1.6c0-0.4,0-0.8,0.1-1.1l0.3-1.8
	c0.2-0.9,0.4-1.7,0.7-2.3c0.3-0.6,0.7-1.1,1.2-1.5c0.5-0.4,1-0.6,1.5-0.8c0.6-0.2,1.2-0.2,1.8-0.2c0.5,0,1,0.1,1.4,0.2
	c0.4,0.1,0.8,0.4,1.2,0.6c0.3,0.3,0.6,0.7,0.8,1.1C29.1,18.6,29.2,19.2,29.2,19.8"/>
<path id="XMLID_26_" class="st0" d="M37.1,19.5c0-0.4-0.1-0.7-0.4-0.9c-0.3-0.2-0.7-0.3-1.2-0.3c0,0-0.1,0-0.3,0c-0.1,0-0.2,0-0.4,0
	c-0.1,0-0.2,0-0.4,0c-0.1,0-0.2,0-0.2,0l-0.5,3c0,0,0.1,0,0.2,0c0.1,0,0.2,0,0.4,0c0.1,0,0.3,0,0.4,0h0.2c1.3,0,2-0.5,2.2-1.5l0-0.1
	c0,0,0-0.1,0-0.1V19.5z M39.6,19.2c0,0.1,0,0.2,0,0.3c0,0.1,0,0.2,0,0.3l0,0.1c-0.1,0.7-0.3,1.3-0.6,1.7c-0.3,0.5-0.7,0.8-1.1,1.1
	c-0.4,0.3-1,0.5-1.5,0.6c-0.6,0.1-1.2,0.2-1.8,0.2c-0.2,0-0.4,0-0.6,0c-0.2,0-0.4,0-0.6,0l-0.6,3.6c0,0.1-0.1,0.1-0.1,0.2
	c-0.1,0.1-0.1,0.1-0.2,0.1h-1.9c-0.2,0-0.3-0.1-0.3-0.2v0l1.8-10c0-0.3,0.1-0.4,0.3-0.5c0.1-0.1,0.3-0.2,0.5-0.2
	c0.4-0.1,0.9-0.1,1.4-0.1c0.6,0,1.1-0.1,1.6-0.1c0.6,0,1.1,0.1,1.6,0.2c0.5,0.1,0.9,0.3,1.2,0.5c0.3,0.2,0.6,0.6,0.8,0.9
	C39.5,18.2,39.6,18.7,39.6,19.2"/>
<path id="XMLID_25_" class="st0" d="M48.9,18.4c-0.1,0.1-0.1,0.1-0.2,0.1h-2.4l-1.5,8.6c0,0.1-0.1,0.1-0.1,0.2
	c-0.1,0.1-0.1,0.1-0.2,0.1h-1.9c-0.1,0-0.1,0-0.2-0.1c-0.1-0.1-0.1-0.1-0.1-0.2l1.5-8.6h-2.4c-0.1,0-0.1,0-0.2-0.1
	c-0.1-0.1-0.1-0.1-0.1-0.2l0.3-1.5c0-0.1,0.1-0.1,0.1-0.2c0.1-0.1,0.1-0.1,0.2-0.1h7.4c0.1,0,0.1,0,0.2,0.1c0.1,0.1,0.1,0.1,0.1,0.2
	l-0.3,1.5C49.1,18.2,49,18.3,48.9,18.4"/>
<path id="XMLID_21_" class="st1" d="M56.3,19.2c0-0.3-0.1-0.6-0.4-0.7c-0.3-0.1-0.8-0.2-1.4-0.2h-0.2h-0.3c-0.1,0-0.2,0-0.3,0
	c-0.1,0-0.2,0-0.2,0l-0.5,2.6h1.7c0.6,0,1-0.1,1.3-0.4C56.2,20.2,56.3,19.7,56.3,19.2 M55.6,23.7c0-0.3-0.1-0.5-0.3-0.7
	c-0.2-0.2-0.6-0.3-1.1-0.3h-1.7l-0.5,2.8h0.3c0.1,0,0.2,0,0.4,0c0.1,0,0.2,0,0.4,0h0.2c0.3,0,0.6,0,0.9-0.1c0.3,0,0.5-0.1,0.7-0.3
	c0.2-0.1,0.4-0.3,0.5-0.5C55.6,24.3,55.6,24,55.6,23.7 M58.8,18.7c0,0.3,0,0.6-0.1,0.9c-0.1,0.3-0.2,0.6-0.3,0.9
	c-0.1,0.3-0.3,0.5-0.5,0.7c-0.2,0.2-0.5,0.4-0.8,0.5c0.3,0.2,0.6,0.5,0.7,0.8c0.2,0.3,0.2,0.7,0.2,1c0,0.8-0.2,1.4-0.5,1.9
	c-0.3,0.5-0.7,0.9-1.2,1.2c-0.5,0.3-1.1,0.5-1.7,0.6c-0.6,0.1-1.3,0.2-1.9,0.2c-0.2,0-0.5,0-0.8,0c-0.3,0-0.5,0-0.8,0
	c-0.2,0-0.5,0-0.7-0.1c-0.2,0-0.4,0-0.5-0.1c-0.2,0-0.4-0.1-0.5-0.2c-0.1-0.1-0.2-0.2-0.2-0.4c0,0,0-0.1,0-0.2c0-0.1,0-0.1,0-0.2
	l1.6-9c0.1-0.3,0.2-0.6,0.3-0.7c0.1-0.1,0.4-0.2,0.7-0.3c0.1,0,0.3,0,0.5-0.1c0.2,0,0.4,0,0.7-0.1c0.2,0,0.5,0,0.8,0
	c0.3,0,0.5,0,0.7,0c0.6,0,1.2,0,1.7,0.1c0.5,0.1,0.9,0.2,1.3,0.4c0.4,0.2,0.6,0.5,0.9,0.8C58.7,17.9,58.8,18.3,58.8,18.7"/>
<path id="XMLID_18_" class="st1" d="M66.7,20c0-0.6-0.1-1-0.4-1.2c-0.2-0.2-0.6-0.4-1.1-0.4c-0.6,0-1.1,0.2-1.5,0.6
	c-0.4,0.4-0.6,1-0.8,2l-0.3,1.8c-0.1,0.4-0.1,0.7-0.1,1c0,0.6,0.1,1,0.4,1.2c0.2,0.2,0.6,0.3,1.1,0.3c0.6,0,1.1-0.2,1.5-0.6
	c0.4-0.4,0.6-1,0.8-2l0.3-1.8c0-0.2,0.1-0.4,0.1-0.5C66.7,20.3,66.7,20.1,66.7,20 M69.3,19.8c0,0.2,0,0.4,0,0.6c0,0.2,0,0.4-0.1,0.6
	l-0.3,1.8c-0.1,0.9-0.4,1.6-0.7,2.2c-0.3,0.6-0.7,1.1-1.1,1.5c-0.4,0.4-1,0.7-1.5,0.8c-0.6,0.2-1.2,0.3-1.9,0.3
	c-0.5,0-1-0.1-1.4-0.2c-0.4-0.1-0.8-0.4-1.2-0.7c-0.3-0.3-0.6-0.7-0.8-1.1c-0.2-0.5-0.3-1-0.3-1.6c0-0.4,0-0.8,0.1-1.1l0.3-1.8
	c0.2-0.9,0.4-1.7,0.7-2.3c0.3-0.6,0.7-1.1,1.2-1.5c0.5-0.4,1-0.6,1.5-0.8c0.6-0.2,1.2-0.2,1.8-0.2c0.5,0,1,0.1,1.4,0.2
	c0.4,0.1,0.8,0.4,1.2,0.6c0.3,0.3,0.6,0.7,0.8,1.1C69.2,18.6,69.3,19.2,69.3,19.8"/>
<path id="XMLID_15_" class="st0" d="M74,25.4c0.5,0,0.9,0,1.2-0.1c0.3,0,0.6-0.1,0.8-0.2c0.2-0.1,0.3-0.3,0.4-0.4
	c0.1-0.2,0.2-0.4,0.2-0.6l0-0.1c0-0.1,0-0.3,0-0.4c0-0.3-0.2-0.6-0.5-0.7c-0.3-0.1-0.9-0.2-1.7-0.2h-0.4c-0.1,0-0.2,0-0.2,0
	c-0.1,0-0.1,0-0.1,0h-0.1l-0.5,2.7h0.1c0,0,0.1,0,0.1,0c0.1,0,0.1,0,0.2,0H74z M72.1,16.6c0-0.1,0.1-0.1,0.1-0.2
	c0.1-0.1,0.1-0.1,0.2-0.1h6.2c0.1,0,0.2,0,0.2,0.1c0,0.1,0,0.1,0,0.2l-0.3,1.5c0,0.1-0.1,0.2-0.1,0.2c0,0-0.1,0.1-0.3,0.1h-4
	L74,20.6c0.2,0,0.3,0,0.5,0c0.2,0,0.3,0,0.5,0c0.6,0,1.1,0,1.6,0.1c0.5,0.1,1,0.2,1.3,0.5c0.4,0.2,0.7,0.5,0.9,0.9
	c0.2,0.4,0.3,0.8,0.3,1.3c0,0.1,0,0.2,0,0.4c0,0.1,0,0.3-0.1,0.4l0,0.1c-0.1,0.7-0.3,1.2-0.7,1.7c-0.3,0.4-0.7,0.8-1.2,1
	c-0.5,0.2-1,0.4-1.6,0.5c-0.6,0.1-1.2,0.1-1.8,0.1c-0.5,0-1,0-1.5-0.1c-0.5,0-0.9-0.1-1.2-0.1c-0.3,0-0.5-0.1-0.6-0.3
	c-0.1-0.1-0.1-0.4-0.1-0.7L72.1,16.6z"/>
<path id="XMLID_14_" class="st0" d="M86,18.5c0-0.1,0-0.1,0-0.2c0,0-0.1-0.1-0.1-0.1c-0.1,0-0.2,0.1-0.3,0.2l-3.4,8.6
	c0,0.1-0.1,0.1-0.1,0.2c-0.1,0.1-0.1,0.1-0.2,0.1h-2.1c-0.1,0-0.2-0.1-0.2-0.2c0,0,0-0.1,0-0.1l3.8-9.2c0.1-0.4,0.3-0.6,0.5-0.9
	c0.2-0.2,0.4-0.4,0.7-0.5c0.2-0.1,0.5-0.2,0.8-0.2c0.3,0,0.5-0.1,0.8-0.1c0.3,0,0.5,0,0.8,0.1c0.2,0,0.5,0.1,0.7,0.2
	c0.2,0.1,0.4,0.3,0.5,0.5c0.1,0.2,0.2,0.5,0.2,0.9l0.6,9.2v0c0,0.1,0,0.2-0.1,0.2c-0.1,0.1-0.1,0.1-0.2,0.1h-2c-0.1,0-0.1,0-0.2-0.1
	c0,0-0.1-0.1-0.1-0.2L86,18.5z"/>
<path id="XMLID_11_" class="st0" d="M96.3,18.5c0-0.1,0-0.1,0-0.2c0,0-0.1-0.1-0.1-0.1c-0.1,0-0.2,0.1-0.3,0.2l-1.6,4.1h2.2
	L96.3,18.5z M99.2,27.1c0,0.1,0,0.2-0.1,0.2c-0.1,0.1-0.1,0.1-0.2,0.1h-2c-0.1,0-0.1,0-0.2-0.1c0-0.1-0.1-0.1-0.1-0.2l-0.1-2.4h-3
	l-1,2.4c0,0.1-0.1,0.1-0.1,0.2c-0.1,0-0.1,0.1-0.2,0.1H90c-0.1,0-0.2-0.1-0.2-0.2c0,0,0-0.1,0-0.1l3.8-9.2c0.1-0.4,0.3-0.6,0.5-0.9
	c0.2-0.2,0.4-0.4,0.7-0.5c0.2-0.1,0.5-0.2,0.8-0.2c0.3,0,0.5-0.1,0.8-0.1c0.3,0,0.5,0,0.8,0.1c0.2,0,0.5,0.1,0.7,0.2
	c0.2,0.1,0.4,0.3,0.5,0.5c0.1,0.2,0.2,0.5,0.2,0.9L99.2,27.1L99.2,27.1z"/>
<path id="XMLID_10_" class="st0" d="M103.4,27.1c0,0.1-0.1,0.1-0.1,0.2c-0.1,0.1-0.1,0.1-0.2,0.1h-1.9c-0.2,0-0.2-0.1-0.2-0.2v-0.1
	l1.3-7.7c0.1-0.7,0.3-1.3,0.6-1.7c0.3-0.4,0.6-0.7,0.9-1c0.4-0.2,0.8-0.4,1.2-0.4c0.4-0.1,0.9-0.1,1.4-0.1c0.4,0,0.7,0,1,0
	c0.3,0,0.6,0,0.8,0.1c0.2,0,0.4,0,0.6,0.1c0.2,0,0.3,0,0.4,0.1c0.2,0,0.3,0.1,0.3,0.2c0,0,0,0,0,0c0,0,0,0,0,0l-0.3,1.4
	c0,0.1-0.1,0.1-0.1,0.2c-0.1,0.1-0.1,0.1-0.2,0.1h-3c-0.3,0-0.6,0.1-0.8,0.2c-0.2,0.1-0.3,0.4-0.4,0.8L103.4,27.1z"/>
<path id="XMLID_7_" class="st0" d="M116.3,20c0-0.6-0.1-1-0.4-1.2c-0.2-0.2-0.6-0.4-1.1-0.4c-0.6,0-1.1,0.2-1.5,0.6
	c-0.4,0.4-0.6,1-0.8,2l-0.3,1.8c-0.1,0.4-0.1,0.7-0.1,1c0,0.6,0.1,1,0.4,1.2c0.2,0.2,0.6,0.3,1.1,0.3c0.6,0,1.1-0.2,1.5-0.6
	c0.4-0.4,0.6-1,0.8-2l0.3-1.8c0-0.2,0.1-0.4,0.1-0.5C116.3,20.3,116.3,20.1,116.3,20 M118.8,19.8c0,0.2,0,0.4,0,0.6
	c0,0.2,0,0.4-0.1,0.6l-0.3,1.8c-0.1,0.9-0.4,1.6-0.7,2.2c-0.3,0.6-0.7,1.1-1.1,1.5c-0.4,0.4-1,0.7-1.5,0.8c-0.6,0.2-1.2,0.3-1.9,0.3
	c-0.5,0-1-0.1-1.4-0.2c-0.4-0.1-0.8-0.4-1.2-0.7c-0.3-0.3-0.6-0.7-0.8-1.1c-0.2-0.5-0.3-1-0.3-1.6c0-0.4,0-0.8,0.1-1.1l0.3-1.8
	c0.2-0.9,0.4-1.7,0.7-2.3c0.3-0.6,0.7-1.1,1.2-1.5c0.5-0.4,1-0.6,1.5-0.8c0.6-0.2,1.2-0.2,1.8-0.2c0.5,0,1,0.1,1.4,0.2
	c0.4,0.1,0.8,0.4,1.2,0.6c0.3,0.3,0.6,0.7,0.8,1.1C118.7,18.6,118.8,19.2,118.8,19.8"/>
<path id="XMLID_6_" class="st2" d="M131.3,9.5c0.4-0.1,0.7-0.1,1.1-0.1c0.4,0,0.7,0,1.1,0.1c0.4,0.1,0.7,0.2,1.1,0.4
	c0.3,0.2,0.7,0.4,1,0.7l-2,2.8c-0.2-0.1-0.3-0.2-0.5-0.3c-0.2-0.1-0.4-0.2-0.5-0.2c-0.2,0-0.4-0.1-0.6-0.1c-0.2,0-0.4,0-0.6,0
	c-0.2,0-0.4,0.1-0.6,0.2c-0.2,0.1-0.4,0.2-0.6,0.3c-0.2,0.1-0.4,0.3-0.6,0.5c-0.2,0.2-0.3,0.4-0.5,0.6l-0.7,1
	c-0.3,0.5-0.5,1-0.7,1.5c-0.1,0.5-0.2,1.1-0.2,1.6c0,0.5,0.1,1.1,0.2,1.5c0.1,0.5,0.4,0.9,0.7,1.3c0.2,0.2,0.3,0.4,0.5,0.5
	c0.2,0.1,0.4,0.3,0.6,0.4c0.2,0.1,0.4,0.2,0.6,0.2c0.2,0,0.4,0.1,0.6,0.1c0.2,0,0.4,0,0.6-0.1c0.2-0.1,0.4-0.1,0.6-0.3
	c0.2-0.1,0.4-0.3,0.6-0.4c0.2-0.2,0.4-0.4,0.6-0.6L142,9.7c0.4-0.5,0.8-1,1.3-1.4c0.5-0.4,1-0.8,1.5-1.2c0.5-0.4,1.1-0.7,1.7-0.9
	c0.6-0.3,1.2-0.5,1.8-0.6c0.6-0.1,1.3-0.2,1.9-0.3c0.6,0,1.3,0,1.9,0.1c0.6,0.1,1.3,0.3,1.9,0.5c0.6,0.3,1.2,0.6,1.8,1
	c1.1,0.8,2,1.9,2.6,3.1c0.6,1.2,0.9,2.6,0.9,4c0,1.4-0.3,2.9-0.9,4.2c-0.6,1.4-1.5,2.6-2.6,3.7l-20.4,19.3l-2-2.9l19-19.4
	c0.6-0.6,1.1-1.3,1.4-2.1c0.3-0.7,0.5-1.5,0.5-2.3c0-0.8-0.2-1.5-0.5-2.2c-0.3-0.7-0.8-1.3-1.4-1.8c-0.3-0.2-0.6-0.4-0.9-0.6
	c-0.3-0.2-0.7-0.3-1-0.3c-0.3-0.1-0.7-0.1-1.1-0.1c-0.4,0-0.7,0-1.1,0.1c-0.4,0.1-0.7,0.2-1,0.3c-0.3,0.1-0.7,0.3-1,0.5
	c-0.3,0.2-0.6,0.4-0.9,0.7c-0.3,0.2-0.5,0.5-0.8,0.8L135,23.6c-0.3,0.4-0.7,0.7-1,1c-0.4,0.3-0.7,0.5-1.1,0.7
	c-0.4,0.2-0.8,0.3-1.2,0.4c-0.4,0.1-0.8,0.1-1.1,0.1c-0.4,0-0.7-0.1-1.1-0.2c-0.4-0.1-0.7-0.2-1-0.4c-0.3-0.2-0.6-0.4-0.9-0.7
	c-0.3-0.3-0.6-0.6-0.8-0.9c-0.5-0.7-0.9-1.5-1.1-2.3c-0.2-0.8-0.4-1.7-0.4-2.6c0-0.9,0.1-1.8,0.4-2.7c0.2-0.9,0.6-1.7,1.1-2.5l0.6-1
	c0.3-0.4,0.5-0.8,0.8-1.1c0.3-0.3,0.6-0.6,1-0.9c0.3-0.3,0.7-0.5,1.1-0.7C130.5,9.8,130.9,9.6,131.3,9.5"/>
<path id="XMLID_5_" class="st3" d="M160,2.1c1.9,1.2,3.4,2.8,4.4,4.8c1,2,1.6,4.2,1.6,6.5c0,2.3-0.5,4.6-1.6,6.8
	c-1,2.1-2.5,4.1-4.4,5.8L137.9,45l-1.3-1.9l21.2-19.2c0.7-0.7,1.4-1.4,1.9-2.1c0.6-0.8,1.1-1.6,1.5-2.5c0.4-0.9,0.7-1.8,0.9-2.7
	c0.2-0.9,0.3-1.9,0.3-2.9c0-1-0.1-1.9-0.3-2.8c-0.2-0.9-0.5-1.7-0.9-2.5c-0.4-0.8-0.9-1.5-1.5-2.1c-0.6-0.6-1.2-1.2-1.9-1.7
	c-0.7-0.5-1.5-0.9-2.3-1.2c-0.8-0.3-1.6-0.5-2.4-0.6c-0.8-0.1-1.6-0.1-2.5-0.1c-0.8,0.1-1.6,0.2-2.5,0.4c-0.8,0.2-1.6,0.5-2.3,0.8
	c-0.7,0.3-1.4,0.7-2.1,1.2c-0.6,0.4-1.2,0.9-1.8,1.5c-0.6,0.5-1.1,1.1-1.5,1.8L132,19.9c-0.1,0.1-0.2,0.2-0.3,0.3
	c-0.1,0.1-0.2,0.2-0.3,0.2c-0.1,0.1-0.2,0.1-0.4,0.2c-0.1,0-0.2,0.1-0.4,0.1c-0.1,0-0.2,0-0.4,0c-0.1,0-0.2-0.1-0.3-0.1
	c-0.1-0.1-0.2-0.1-0.3-0.2c-0.1-0.1-0.2-0.2-0.3-0.3c-0.1-0.1-0.2-0.2-0.2-0.3c-0.1-0.1-0.1-0.3-0.2-0.4c0-0.1-0.1-0.3-0.1-0.4
	c0-0.1,0-0.3,0-0.5c0-0.2,0-0.3,0-0.5c0-0.2,0.1-0.3,0.1-0.5c0-0.1,0.1-0.3,0.2-0.4c0.1-0.1,0.1-0.3,0.2-0.4l0.7-1
	c0.1-0.1,0.2-0.2,0.3-0.3c0.1-0.1,0.2-0.2,0.3-0.3c0.1-0.1,0.2-0.1,0.4-0.2c0.1-0.1,0.2-0.1,0.4-0.1c0.1,0,0.2,0,0.3,0
	c0.1,0,0.2,0,0.3,0c0.1,0,0.2,0,0.3,0.1c0.1,0,0.2,0.1,0.2,0.1l-2.1,2.9c0,0,0,0.1-0.1,0.1c0,0,0,0.1,0,0.1c0,0,0,0.1,0,0.1
	c0,0,0,0.1,0,0.1c0,0,0,0.1,0,0.1c0,0,0,0.1,0,0.1c0,0,0,0.1,0,0.1c0,0,0,0.1,0.1,0.1c0,0,0,0.1,0.1,0.1c0,0,0.1,0,0.1,0
	c0,0,0,0,0.1,0c0,0,0,0,0.1,0c0,0,0,0,0.1,0c0,0,0,0,0.1,0c0,0,0.1,0,0.1-0.1c0,0,0.1-0.1,0.1-0.1l8.3-11.4c0.5-0.7,1.1-1.5,1.8-2.1
	c0.7-0.7,1.4-1.3,2.1-1.8c0.8-0.6,1.6-1.1,2.4-1.5c0.9-0.4,1.8-0.8,2.8-1.1c1-0.3,2-0.5,3-0.6c1-0.1,2-0.1,3,0c1,0.1,2,0.3,3,0.7
	C158.2,1.1,159.2,1.5,160,2.1"/>
<path id="XMLID_4_" class="st4" d="M152.4,10.7c0.6,0.5,1.1,1.1,1.4,1.8c0.3,0.7,0.5,1.4,0.5,2.2c0,0.8-0.2,1.6-0.5,2.3
	c-0.3,0.7-0.8,1.4-1.4,2.1l-19,19.4l-1.1-1.6l18.3-19.5c0.2-0.2,0.3-0.3,0.4-0.5c0.1-0.2,0.2-0.4,0.3-0.6c0.1-0.2,0.1-0.4,0.2-0.6
	c0-0.2,0.1-0.4,0.1-0.6c0-0.2,0-0.4-0.1-0.6c0-0.2-0.1-0.4-0.2-0.6c-0.1-0.2-0.2-0.4-0.3-0.5c-0.1-0.2-0.3-0.3-0.4-0.4
	c-0.2-0.1-0.3-0.2-0.5-0.3c-0.2-0.1-0.4-0.2-0.6-0.2c-0.2-0.1-0.4-0.1-0.6-0.1c-0.2,0-0.4,0-0.6,0c-0.2,0-0.4,0.1-0.6,0.2
	c-0.2,0.1-0.4,0.2-0.6,0.3c-0.2,0.1-0.4,0.2-0.5,0.4c-0.2,0.1-0.3,0.3-0.4,0.4L136.3,25c-0.4,0.5-0.8,0.9-1.3,1.3
	c-0.5,0.4-0.9,0.6-1.4,0.9c-0.5,0.2-1,0.4-1.5,0.5c-0.5,0.1-1,0.1-1.5,0.1c-0.5,0-1-0.1-1.4-0.3c-0.4-0.1-0.9-0.3-1.3-0.6
	c-0.4-0.2-0.8-0.5-1.1-0.9c-0.3-0.3-0.7-0.7-1-1.1c-0.3-0.4-0.6-0.9-0.8-1.3c-0.2-0.5-0.4-1-0.6-1.5c-0.1-0.5-0.3-1-0.3-1.6
	c-0.1-0.5-0.1-1.1-0.1-1.7c0-0.6,0-1.1,0.1-1.7c0.1-0.6,0.2-1.1,0.3-1.6c0.1-0.5,0.3-1.1,0.6-1.6c0.2-0.5,0.5-1,0.8-1.5l0.6-1
	c0.3-0.5,0.6-0.9,1-1.4c0.4-0.4,0.7-0.8,1.2-1.1c0.4-0.3,0.9-0.6,1.3-0.9c0.5-0.2,0.9-0.4,1.4-0.6c0.5-0.1,0.9-0.2,1.4-0.2
	c0.5,0,0.9,0,1.4,0.1c0.5,0.1,0.9,0.3,1.4,0.5c0.4,0.2,0.9,0.5,1.3,0.8l-0.2,0.3l-1,1.5c-0.3-0.3-0.7-0.5-1-0.7
	c-0.3-0.2-0.7-0.3-1.1-0.4c-0.4-0.1-0.7-0.1-1.1-0.1c-0.4,0-0.7,0-1.1,0.1c-0.4,0.1-0.8,0.2-1.1,0.4c-0.4,0.2-0.7,0.4-1.1,0.7
	c-0.3,0.3-0.7,0.6-1,0.9c-0.3,0.3-0.6,0.7-0.8,1.1l-0.6,1c-0.5,0.8-0.9,1.6-1.1,2.5c-0.2,0.9-0.4,1.8-0.4,2.7c0,0.9,0.1,1.8,0.4,2.6
	c0.2,0.8,0.6,1.6,1.1,2.3c0.3,0.3,0.5,0.7,0.8,0.9c0.3,0.3,0.6,0.5,0.9,0.7c0.3,0.2,0.7,0.3,1,0.4c0.4,0.1,0.7,0.2,1.1,0.2
	c0.4,0,0.8,0,1.1-0.1c0.4-0.1,0.8-0.2,1.2-0.4c0.4-0.2,0.8-0.4,1.1-0.7c0.4-0.3,0.7-0.6,1-1l9.5-11.6c0.2-0.3,0.5-0.6,0.8-0.8
	c0.3-0.2,0.6-0.5,0.9-0.7c0.3-0.2,0.6-0.3,1-0.5c0.3-0.1,0.7-0.2,1-0.3c0.4-0.1,0.7-0.1,1.1-0.1c0.4,0,0.7,0,1.1,0.1
	c0.4,0.1,0.7,0.2,1,0.3C151.7,10.3,152.1,10.5,152.4,10.7"/>
<path id="XMLID_3_" class="st4" d="M157.8,4.5c0.7,0.5,1.4,1.1,1.9,1.7c0.6,0.6,1.1,1.4,1.5,2.1c0.4,0.8,0.7,1.6,0.9,2.5
	c0.2,0.9,0.3,1.8,0.3,2.8c0,1-0.1,1.9-0.3,2.9c-0.2,0.9-0.5,1.8-0.9,2.7c-0.4,0.9-0.9,1.7-1.5,2.5c-0.6,0.8-1.2,1.5-1.9,2.1
	l-21.2,19.2l-1.2-1.8L155.7,22c1.1-1.1,2-2.4,2.6-3.7c0.6-1.4,0.9-2.8,0.9-4.2c0-1.4-0.3-2.8-0.9-4c-0.6-1.2-1.5-2.3-2.6-3.1
	c-0.6-0.4-1.2-0.7-1.8-1c-0.6-0.2-1.2-0.4-1.9-0.5c-0.6-0.1-1.3-0.1-1.9-0.1c-0.6,0-1.3,0.1-1.9,0.3c-0.6,0.1-1.2,0.3-1.8,0.6
	c-0.6,0.3-1.1,0.6-1.7,0.9c-0.5,0.3-1,0.7-1.5,1.2c-0.5,0.4-0.9,0.9-1.3,1.4l-8.9,11.5c-0.2,0.2-0.4,0.4-0.6,0.6
	c-0.2,0.2-0.4,0.3-0.6,0.4c-0.2,0.1-0.4,0.2-0.6,0.3c-0.2,0.1-0.4,0.1-0.6,0.1c-0.2,0-0.4,0-0.6-0.1c-0.2,0-0.4-0.1-0.6-0.2
	c-0.2-0.1-0.4-0.2-0.6-0.4c-0.2-0.1-0.3-0.3-0.5-0.5c-0.3-0.4-0.5-0.8-0.7-1.3c-0.1-0.5-0.2-1-0.2-1.5c0-0.5,0.1-1.1,0.2-1.6
	c0.1-0.5,0.4-1,0.7-1.5l0.7-1c0.2-0.2,0.3-0.4,0.5-0.6c0.2-0.2,0.4-0.4,0.6-0.5c0.2-0.1,0.4-0.3,0.6-0.3c0.2-0.1,0.4-0.2,0.6-0.2
	c0.2,0,0.4,0,0.6,0c0.2,0,0.4,0,0.6,0.1c0.2,0,0.4,0.1,0.5,0.2c0.2,0.1,0.4,0.2,0.5,0.3l-1.1,1.6c-0.1-0.1-0.2-0.1-0.2-0.1
	c-0.1,0-0.2-0.1-0.3-0.1c-0.1,0-0.2,0-0.3,0c-0.1,0-0.2,0-0.3,0c-0.1,0-0.3,0.1-0.4,0.1c-0.1,0.1-0.2,0.1-0.4,0.2
	c-0.1,0.1-0.2,0.2-0.3,0.3c-0.1,0.1-0.2,0.2-0.3,0.3l-0.7,1c-0.1,0.1-0.2,0.3-0.2,0.4c-0.1,0.1-0.1,0.3-0.2,0.4
	c0,0.1-0.1,0.3-0.1,0.5c0,0.2,0,0.3,0,0.5c0,0.2,0,0.3,0,0.5c0,0.2,0.1,0.3,0.1,0.4c0,0.1,0.1,0.3,0.2,0.4c0.1,0.1,0.1,0.2,0.2,0.3
	c0.1,0.1,0.2,0.2,0.3,0.3c0.1,0.1,0.2,0.1,0.3,0.2c0.1,0.1,0.2,0.1,0.3,0.1c0.1,0,0.2,0,0.4,0c0.1,0,0.3,0,0.4-0.1
	c0.1,0,0.2-0.1,0.4-0.2c0.1-0.1,0.2-0.2,0.3-0.2c0.1-0.1,0.2-0.2,0.3-0.3l8.6-11.5c0.5-0.6,1-1.2,1.5-1.8c0.6-0.5,1.2-1,1.8-1.5
	c0.7-0.5,1.3-0.9,2.1-1.2c0.7-0.3,1.5-0.6,2.3-0.8c0.8-0.2,1.6-0.4,2.5-0.4c0.8-0.1,1.7,0,2.5,0.1c0.8,0.1,1.6,0.3,2.4,0.6
	C156.4,3.7,157.1,4.1,157.8,4.5"/>
<path id="XMLID_2_" class="st3" d="M150.5,17.3l-18.3,19.5l-1.1-1.6l17.6-19.5c0,0,0.1-0.1,0.1-0.1c0,0,0-0.1,0.1-0.1
	c0,0,0-0.1,0-0.1c0,0,0-0.1,0-0.1c0,0,0-0.1,0-0.1c0,0,0-0.1,0-0.1c0,0,0-0.1-0.1-0.1c0,0-0.1-0.1-0.1-0.1c0,0-0.1-0.1-0.1-0.1
	c0,0-0.1,0-0.1,0c0,0-0.1,0-0.1,0c0,0-0.1,0-0.1,0c0,0-0.1,0-0.1,0c0,0-0.1,0-0.1,0c0,0-0.1,0-0.1,0.1c0,0-0.1,0.1-0.1,0.1
	l-10.3,11.6c-0.5,0.6-1.1,1.1-1.6,1.5c-0.6,0.4-1.1,0.8-1.7,1c-0.6,0.3-1.2,0.4-1.8,0.5c-0.6,0.1-1.2,0.1-1.8,0.1
	c-0.6-0.1-1.1-0.2-1.7-0.4c-0.5-0.2-1-0.4-1.5-0.7c-0.5-0.3-0.9-0.7-1.3-1.1c-0.4-0.4-0.8-0.9-1.1-1.4c-0.3-0.5-0.6-1-0.9-1.6
	c-0.3-0.6-0.5-1.1-0.6-1.7c-0.2-0.6-0.3-1.2-0.4-1.9c-0.1-0.6-0.1-1.3-0.1-2s0-1.3,0.1-2c0.1-0.7,0.2-1.3,0.4-1.9
	c0.2-0.6,0.4-1.3,0.6-1.9c0.3-0.6,0.6-1.2,0.9-1.8l0.6-1c0.4-0.6,0.7-1.1,1.2-1.6c0.4-0.5,0.9-1,1.4-1.4c0.5-0.4,1-0.8,1.5-1.1
	c0.6-0.3,1.1-0.6,1.7-0.7c0.6-0.2,1.1-0.3,1.7-0.3c0.6,0,1.2,0,1.7,0.1c0.6,0.1,1.1,0.3,1.7,0.5c0.6,0.3,1.1,0.6,1.6,1l-1.5,2.1
	l0.2-0.3c-0.4-0.3-0.8-0.6-1.3-0.8c-0.4-0.2-0.9-0.4-1.4-0.5c-0.5-0.1-0.9-0.1-1.4-0.1c-0.5,0-0.9,0.1-1.4,0.2
	c-0.5,0.1-1,0.3-1.4,0.6c-0.5,0.2-0.9,0.5-1.3,0.9c-0.4,0.3-0.8,0.7-1.2,1.1c-0.4,0.4-0.7,0.9-1,1.4l-0.6,1c-0.3,0.5-0.6,1-0.8,1.5
	c-0.2,0.5-0.4,1-0.6,1.6c-0.1,0.5-0.3,1.1-0.3,1.6c-0.1,0.6-0.1,1.1-0.1,1.7c0,0.6,0,1.1,0.1,1.7c0.1,0.5,0.2,1.1,0.3,1.6
	c0.1,0.5,0.3,1,0.6,1.5c0.2,0.5,0.5,0.9,0.8,1.3c0.3,0.4,0.6,0.8,1,1.1c0.4,0.3,0.7,0.6,1.1,0.9c0.4,0.2,0.8,0.4,1.3,0.6
	c0.5,0.1,0.9,0.2,1.4,0.3c0.5,0,1,0,1.5-0.1c0.5-0.1,1-0.3,1.5-0.5c0.5-0.2,1-0.5,1.4-0.9c0.5-0.4,0.9-0.8,1.3-1.3l9.9-11.6
	c0.1-0.2,0.3-0.3,0.4-0.4c0.2-0.1,0.3-0.3,0.5-0.4c0.2-0.1,0.4-0.2,0.6-0.3c0.2-0.1,0.4-0.1,0.6-0.2c0.2,0,0.4,0,0.6,0
	c0.2,0,0.4,0,0.6,0.1c0.2,0.1,0.4,0.1,0.6,0.2c0.2,0.1,0.3,0.2,0.5,0.3c0.2,0.1,0.3,0.3,0.4,0.4c0.1,0.2,0.2,0.3,0.3,0.5
	c0.1,0.2,0.1,0.4,0.2,0.6c0,0.2,0.1,0.4,0.1,0.6c0,0.2,0,0.4-0.1,0.6c0,0.2-0.1,0.4-0.2,0.6c-0.1,0.2-0.2,0.4-0.3,0.6
	C150.8,17,150.7,17.2,150.5,17.3"/>
</svg>
